<svg t="1780833792488" class="icon" viewBox="0 0 1024 1024" version="1.1" xmlns="http://www.w3.org/2000/svg" p-id="6653" width="200" height="200"><path d="M512.487619 0A512 512 0 0 0 0 512.487619c0 226.499048 146.773333 418.279619 350.403048 486.156191 25.453714 5.071238 34.816-11.02019 34.816-24.624762 0-11.849143-0.877714-52.614095-0.877715-95.036953-142.531048 30.573714-172.227048-61.049905-172.227047-61.049905-22.918095-59.392-56.856381-74.703238-56.856381-74.703238-46.665143-31.353905 3.413333-31.353905 3.413333-31.353904 51.736381 3.413333 78.896762 52.565333 78.896762 52.565333 45.83619 78.06781 119.612952 56.027429 149.308952 42.422857 4.242286-33.060571 17.846857-55.978667 32.280381-68.705524-113.712762-11.897905-233.325714-55.978667-233.325714-252.830476 0-56.027429 20.333714-101.814857 52.565333-137.459809-5.071238-12.726857-22.918095-65.340952 5.12-135.753143 0 0 43.25181-13.55581 140.824381 52.614095 40.71619-11.02019 84.845714-16.969143 128.146286-16.969143 43.25181 0 87.381333 5.948952 128.097524 16.969143 97.572571-66.169905 140.824381-52.614095 140.824381-52.614095 28.038095 70.41219 10.24 123.026286 5.12 135.753143 33.060571 35.59619 52.614095 81.432381 52.614095 137.459809 0 196.85181-119.661714 240.103619-234.203429 252.830476 18.67581 16.091429 34.816 46.665143 34.816 95.036953 0 68.754286-0.877714 123.855238-0.877714 140.824381 0 13.604571 9.362286 29.744762 34.816 24.624762 203.629714-67.876571 350.403048-259.657143 350.403048-486.156191C1024.926476 229.083429 795.014095 0 512.487619 0z" fill="#191717" p-id="6654"></path><path d="M194.31619 735.622095c-0.877714 2.535619-5.12 3.413333-8.484571 1.706667-3.413333-1.706667-5.948952-5.12-4.242286-7.655619 0.828952-2.535619 5.071238-3.413333 8.484572-1.706667 3.413333 1.706667 5.071238 5.12 4.242285 7.655619z m20.333715 22.918095c-2.535619 2.535619-7.606857 0.828952-10.191238-2.58438-3.413333-3.413333-4.242286-8.484571-1.657905-11.020191 2.535619-2.535619 6.777905-0.828952 10.142476 2.535619 3.413333 4.242286 4.242286 9.362286 1.706667 11.068952z m20.382476 29.696c-3.413333 2.535619-8.484571 0-11.020191-4.242285-3.413333-4.242286-3.413333-10.24 0-11.897905 3.413333-2.535619 8.484571 0 11.020191 4.242286 3.413333 4.242286 3.413333 9.313524 0 11.897904z m27.989333 28.818286c-2.535619 3.413333-8.484571 2.535619-13.555809-1.706666-4.242286-4.242286-5.948952-10.142476-2.584381-12.678096 2.584381-3.413333 8.484571-2.584381 13.604571 1.657905 4.242286 3.413333 5.071238 9.362286 2.535619 12.726857z m38.180572 16.091429c-0.828952 4.291048-6.826667 5.997714-12.726857 4.291047-5.948952-1.706667-9.313524-6.826667-8.484572-10.191238 0.828952-4.242286 6.826667-5.948952 12.726857-4.242285 5.948952 1.706667 9.313524 5.948952 8.484572 10.191238z m41.593904 3.413333c0 4.242286-5.12 7.655619-11.068952 7.655619-5.90019 0-11.02019-3.413333-11.02019-7.655619S325.827048 828.952381 331.727238 828.952381c5.948952 0 11.068952 3.413333 11.068952 7.606857z m39.009524-6.777905c0.828952 4.242286-3.413333 8.484571-9.313524 9.362286-5.948952 0.828952-11.068952-1.706667-11.897904-5.948952-0.828952-4.242286 3.413333-8.484571 9.313524-9.362286 5.948952-0.828952 11.068952 1.706667 11.897904 5.948952z" fill="#191717" p-id="6655"></path></svg>