<svg t="1780676479406" class="icon" viewBox="0 0 1024 1024" version="1.1" xmlns="http://www.w3.org/2000/svg" p-id="11105" width="200" height="200"><path d="M665.746286 760.783238a13.409524 13.409524 0 0 0-3.657143 6.339048 19.407238 19.407238 0 0 0-0.390095 2.974476 18.773333 18.773333 0 0 0 0.243809 2.925714 17.456762 17.456762 0 0 0 0.877714 2.876953l0.292572 0.682666a16.822857 16.822857 0 0 0 2.096762 3.072 13.312 13.312 0 0 0 2.243047 1.950476 196.022857 196.022857 0 0 1 13.019429 13.604572 194.852571 194.852571 0 0 1 13.653333 18.041905 166.570667 166.570667 0 0 1 14.287238 26.477714 217.965714 217.965714 0 0 1 5.36381 14.09219 180.565333 180.565333 0 0 1 7.606857 32.963048 60.367238 60.367238 0 0 0 6.046476 14.238476 52.955429 52.955429 0 0 0 7.801905 10.24 58.61181 58.61181 0 0 0 19.017143 13.068191 57.10019 57.10019 0 0 0 60.269714-10.044953 53.540571 53.540571 0 0 0 8.533333-9.606095 53.052952 53.052952 0 0 0 6.192762-11.312762 53.248 53.248 0 0 0 3.510858-12.385524 56.466286 56.466286 0 0 0-9.45981-41.691428 52.906667 52.906667 0 0 0-10.435048-11.361524 58.416762 58.416762 0 0 0-20.382476-10.873905 53.540571 53.540571 0 0 0-10.093714-1.950476 209.091048 209.091048 0 0 1-17.261714-4.144762 169.106286 169.106286 0 0 1-32.719238-13.360762 160.329143 160.329143 0 0 1-21.016381-13.165714 147.992381 147.992381 0 0 1-11.117715-8.825905 152.137143 152.137143 0 0 1-12.824381-12.190476 174.518857 174.518857 0 0 1-2.925714-3.120762 14.189714 14.189714 0 0 0-1.560381-1.219048l-0.536381-0.341333a13.653333 13.653333 0 0 0-0.585143-0.341333l-0.633904-0.292572a11.702857 11.702857 0 0 0-2.486858-0.926476 15.701333 15.701333 0 0 0-3.998476-0.390095l-0.682666 0.048762-0.633905 0.097524a15.506286 15.506286 0 0 0-1.950476 0.438857l-0.682667 0.195047a10.922667 10.922667 0 0 0-2.438095 1.170286 13.702095 13.702095 0 0 0-0.487619 0.341333l-0.585143 0.390096a10.825143 10.825143 0 0 0-1.511619 1.316571z" fill="#FB6500" p-id="11106"></path><path d="M897.365333 670.72a51.590095 51.590095 0 0 0-7.606857 9.362286 53.150476 53.150476 0 0 0-5.461333 10.825143 70.41219 70.41219 0 0 0-2.096762 6.972952 45.641143 45.641143 0 0 0-1.219048 7.168 175.250286 175.250286 0 0 1-55.100952 98.499048 17.359238 17.359238 0 0 0-0.926476 1.170285l-0.390095 0.633905a11.361524 11.361524 0 0 0-1.170286 2.584381 18.67581 18.67581 0 0 0-0.682667 2.779429l-0.048762 0.731428-0.048762 0.682667a17.944381 17.944381 0 0 0 0.048762 1.462857l0.097524 0.731429a17.798095 17.798095 0 0 0 0.487619 2.096761 15.847619 15.847619 0 0 0 2.29181 4.388572 15.993905 15.993905 0 0 0 2.535619 2.535619 12.629333 12.629333 0 0 0 3.803428 1.950476 11.068952 11.068952 0 0 0 2.096762 0.585143l0.682667 0.097524a11.849143 11.849143 0 0 0 1.462857 0.097524h0.682667a11.800381 11.800381 0 0 0 2.82819-0.438858 11.215238 11.215238 0 0 0 2.681905-0.975238 11.117714 11.117714 0 0 0 1.852952-1.121523 15.993905 15.993905 0 0 0 2.633143-2.438096 11.751619 11.751619 0 0 0 0.487619-0.536381l0.390095-0.585143a195.681524 195.681524 0 0 1 13.604572-13.06819 171.885714 171.885714 0 0 1 51.492571-30.768762 169.593905 169.593905 0 0 1 32.670476-9.020952 151.649524 151.649524 0 0 1 7.41181-1.121524 55.100952 55.100952 0 0 0 17.700571-8.289524 53.540571 53.540571 0 0 0 9.752381-8.582095 54.320762 54.320762 0 0 0 9.069715-13.507048 62.610286 62.610286 0 0 0 3.462095-9.167238 50.907429 50.907429 0 0 0 1.852952-9.606095 60.562286 60.562286 0 0 0-0.633905-16.286476 54.662095 54.662095 0 0 0-6.777904-18.285715 55.978667 55.978667 0 0 0-23.405715-22.137904 56.124952 56.124952 0 0 0-28.379428-6.192762 52.126476 52.126476 0 0 0-12.873143 2.048 52.565333 52.565333 0 0 0-12.092952 4.924952 54.51581 54.51581 0 0 0-13.019429 9.752381h-0.146286z" fill="#0082EF" p-id="11107"></path><path d="M736.889905 509.70819a65.097143 65.097143 0 0 0-6.436572 7.65562 55.149714 55.149714 0 0 0-7.801904 16.188952 71.387429 71.387429 0 0 0-1.804191 7.801905 53.881905 53.881905 0 0 0-0.146286 15.993904 66.706286 66.706286 0 0 0 2.145524 9.752381 66.80381 66.80381 0 0 0 3.852191 9.264762 51.297524 51.297524 0 0 0 6.631619 9.947429 48.761905 48.761905 0 0 0 5.510095 5.851428 64.853333 64.853333 0 0 0 7.94819 6.046477 55.296 55.296 0 0 0 16.530286 7.070476 53.833143 53.833143 0 0 0 7.899429 1.414095 162.57219 162.57219 0 0 1 23.990857 6.192762 159.890286 159.890286 0 0 1 19.699809 7.996952 160.085333 160.085333 0 0 1 18.627048 10.337524 238.83581 238.83581 0 0 1 8.777143 5.997714 153.161143 153.161143 0 0 1 13.799619 11.117715 174.86019 174.86019 0 0 1 13.653333 13.458285 11.897905 11.897905 0 0 0 2.389334 1.609143 15.60381 15.60381 0 0 0 3.315809 1.26781 10.532571 10.532571 0 0 0 1.462857 0.243809l0.682667 0.097524a17.603048 17.603048 0 0 0 3.559619-0.243809 18.139429 18.139429 0 0 0 1.414095-0.341334l0.682667-0.243809a18.968381 18.968381 0 0 0 2.535619-1.219048 15.701333 15.701333 0 0 0 3.267048-2.82819 12.678095 12.678095 0 0 0 2.82819-5.753905 8.923429 8.923429 0 0 0 0.24381-1.414095l0.048761-0.682667 0.048762-0.731429v-0.731428l-0.048762-0.682667a16.676571 16.676571 0 0 0-0.828952-3.510857 11.068952 11.068952 0 0 0-0.877714-1.950476 12.726857 12.726857 0 0 0-3.218286-3.852191 15.798857 15.798857 0 0 0-1.121524-0.828952 152.478476 152.478476 0 0 1-10.581333-10.776381 151.844571 151.844571 0 0 1-11.800381-14.628571 167.009524 167.009524 0 0 1-13.750857-22.528 197.778286 197.778286 0 0 1-7.704381-17.164191 180.272762 180.272762 0 0 1-9.020953-32.670476 190.610286 190.610286 0 0 1-1.121523-7.460571 59.63581 59.63581 0 0 0-7.801905-16.774096 55.05219 55.05219 0 0 0-12.678095-13.409524 54.954667 54.954667 0 0 0-16.384-8.679619 57.295238 57.295238 0 0 0-55.734857 11.215239 55.588571 55.588571 0 0 0-2.681905 2.58438z" fill="#2DBC00" p-id="11108"></path><path d="M708.85181 598.893714l-1.072762 0.975238a203.093333 203.093333 0 0 1-10.776381 10.971429 178.663619 178.663619 0 0 1-41.008762 28.233143 150.528 150.528 0 0 1-14.092191 6.192762 187.928381 187.928381 0 0 1-21.942857 6.972952 197.827048 197.827048 0 0 1-18.870857 3.510857 54.320762 54.320762 0 0 0-18.529524 8.679619 47.786667 47.786667 0 0 0-5.753905 4.729905 55.978667 55.978667 0 0 0-17.261714 32.377905 58.12419 58.12419 0 0 0 1.26781 24.039619 57.636571 57.636571 0 0 0 13.653333 24.137143 48.128 48.128 0 0 0 5.802667 5.363809 48.90819 48.90819 0 0 0 8.289523 5.558857 61.293714 61.293714 0 0 0 13.019429 5.217524 62.902857 62.902857 0 0 0 13.848381 1.852953 68.656762 68.656762 0 0 0 9.99619-0.780191 53.784381 53.784381 0 0 0 15.262477-4.778667 68.169143 68.169143 0 0 0 6.92419-3.949714 54.857143 54.857143 0 0 0 14.433524-13.750857 47.201524 47.201524 0 0 0 4.291048-6.826667 61.44 61.44 0 0 0 4.534857-11.068952 66.413714 66.413714 0 0 0 1.950476-9.849905 209.67619 209.67619 0 0 1 4.096-17.212952 209.481143 209.481143 0 0 1 4.534857-13.458286 160.036571 160.036571 0 0 1 8.825905-19.407238 147.894857 147.894857 0 0 1 9.118476-15.213714 147.797333 147.797333 0 0 1 8.338286-11.459048 197.290667 197.290667 0 0 1 14.238476-15.847619 202.898286 202.898286 0 0 1 6.095238-5.851429 14.189714 14.189714 0 0 0 1.219048-1.56038l0.390095-0.585143 0.292571-0.585143a17.456762 17.456762 0 0 0 0.585143-1.170286l0.24381-0.633905a13.799619 13.799619 0 0 0 0.78019-3.267047v-0.682667a15.11619 15.11619 0 0 0 0-1.316571v-0.682667L731.428571 607.085714a26.819048 26.819048 0 0 0-0.633904-2.584381 9.654857 9.654857 0 0 0-0.487619-1.267809l-0.292572-0.585143-0.341333-0.585143a8.582095 8.582095 0 0 0-0.731429-1.121524 22.137905 22.137905 0 0 0-1.80419-1.950476 15.018667 15.018667 0 0 0-2.730667-1.950476l-0.585143-0.341333a13.653333 13.653333 0 0 0-1.267809-0.487619l-0.633905-0.24381-0.633905-0.146286-0.633905-0.146285a14.482286 14.482286 0 0 0-0.682666-0.146286l-0.682667-0.097524h-0.633905a15.506286 15.506286 0 0 0-3.998476 0.341333 14.09219 14.09219 0 0 0-1.316571 0.390096l-0.585143 0.243809a11.702857 11.702857 0 0 0-2.389333 1.26781 15.506286 15.506286 0 0 0-1.609143 1.219047z" fill="#FFCC00" p-id="11109"></path><path d="M364.007619 106.593524c-102.302476 11.264-195.047619 55.003429-261.607619 123.318857A345.478095 345.478095 0 0 0 26.087619 348.257524a313.490286 313.490286 0 0 0-9.020952 193.731047 311.393524 311.393524 0 0 0 43.495619 93.671619c18.090667 27.306667 47.786667 61.488762 74.947047 85.723429l-12.288 96.694857-1.365333 4.096c-0.341333 1.170286-0.341333 2.535619-0.487619 3.754667L121.027048 828.952381l0.341333 3.072a32.670476 32.670476 0 0 0 4.096 12.970667 32.52419 32.52419 0 0 0 9.264762 9.99619 28.720762 28.720762 0 0 0 8.777143 4.193524 28.379429 28.379429 0 0 0 9.752381 1.219048 32.816762 32.816762 0 0 0 11.410285-2.53562 33.596952 33.596952 0 0 0 3.462096-1.755428h0.487619l1.950476-1.365333 29.354667-14.726096 87.57638-44.032a456.850286 456.850286 0 0 0 111.908572 17.408 449.438476 449.438476 0 0 0 26.185143 0.097524 457.094095 457.094095 0 0 0 147.114666-27.257905 51.882667 51.882667 0 0 1-10.922666-4.87619 54.613333 54.613333 0 0 1-13.019429-10.532572 55.832381 55.832381 0 0 1-12.873143-22.820571 62.268952 62.268952 0 0 1-2.096762-11.751619 56.417524 56.417524 0 0 1 0.146286-9.606095 396.629333 396.629333 0 0 1-49.542095 12.385524 371.126857 371.126857 0 0 1-50.761143 5.705142 396.580571 396.580571 0 0 1-61.244952-2.048l-8.728381-1.170285a390.729143 390.729143 0 0 1-59.977143-12.678096 38.521905 38.521905 0 0 0-17.895619-0.438857 38.619429 38.619429 0 0 0-11.215238 4.193524l-2.438096 1.219048-72.070095 42.374095-3.072 1.852952c-1.706667 1.024-2.535619 1.365333-3.413333 1.365334h-0.24381l-0.243809-0.048762a3.900952 3.900952 0 0 1-0.682667-0.146286l-0.195047-0.097524-0.24381-0.097524-0.195048-0.097523a3.900952 3.900952 0 0 1-0.243809-0.097524l-0.195048-0.146286-0.195047-0.097524-0.195048-0.146285a4.096 4.096 0 0 1-0.536381-0.487619 4.193524 4.193524 0 0 1-0.146286-0.146286l-0.195047-0.195048a8.289524 8.289524 0 0 1-0.633905-0.975238 6.144 6.144 0 0 1-0.390095-1.365333 6.339048 6.339048 0 0 1-0.048762-0.975238l2.730667-11.117715 3.218285-12.092952 5.12-19.992381 5.997715-22.186667a28.42819 28.42819 0 0 0 1.414095-10.483809 28.476952 28.476952 0 0 0-2.29181-10.337524 29.403429 29.403429 0 0 0-10.044952-12.824381 321.097143 321.097143 0 0 1-48.518095-44.568381 311.442286 311.442286 0 0 1-37.10781-52.175238 245.662476 245.662476 0 0 1-29.403428-142.043428 247.417905 247.417905 0 0 1 24.478476-86.064762 284.672 284.672 0 0 1 51.248762-71.68c54.613333-56.368762 131.510857-92.257524 216.551619-101.424762a403.260952 403.260952 0 0 1 88.454095 0c84.553143 9.703619 161.060571 46.08 215.381333 102.058666 20.967619 21.699048 38.034286 46.128762 50.712381 72.070096 16.920381 34.523429 25.453714 71.046095 25.453714 108.446476 0 3.900952-0.341333 7.850667-0.487619 11.654095a54.905905 54.905905 0 0 1 17.505524-7.119238 57.051429 57.051429 0 0 1 52.46781 15.311238l2.535619 3.072a309.052952 309.052952 0 0 0-12.044191-113.42019 308.028952 308.028952 0 0 0-19.017143-48.469334 342.601143 342.601143 0 0 0-36.181333-58.514285 344.30781 344.30781 0 0 0-54.02819-56.271239 421.059048 421.059048 0 0 0-59.977143-42.520381 424.228571 424.228571 0 0 0-101.376-43.008 422.570667 422.570667 0 0 0-72.216381-13.653333 480.304762 480.304762 0 0 0-105.569524-0.390095z" fill="#0082EF" p-id="11110"></path></svg>