<svg t="1780676387573" class="icon" viewBox="0 0 1025 1024" version="1.1" xmlns="http://www.w3.org/2000/svg" p-id="10519" width="200" height="200"><path d="M770.982766 373.321143c-2.681905 0.097524-3.413333-1.072762-3.657143-3.657143-0.341333-2.681905-0.146286-5.948952-1.462857-8.045714-2.584381-4.047238-1.852952-8.777143-4.047238-12.970667a23.064381 23.064381 0 0 1-2.535619-7.021714c-0.146286-1.511619 0.24381-3.559619-0.828953-4.388572-2.340571-1.609143-1.462857-4.388571-2.925714-6.534095-1.560381-2.389333-1.706667-5.753905-2.925714-8.679619-1.26781-2.974476-2.730667-6.192762-3.072-9.508571-0.097524-1.609143-1.950476-1.657905-1.950477-3.267048 0.24381-2.681905-1.755429-4.924952-2.438095-7.509333-0.877714-3.413333-2.779429-6.680381-4.047238-10.044953a78.262857 78.262857 0 0 0-3.413333-7.899428c-1.852952-3.657143-3.413333-7.363048-5.510095-10.971429-2.048-3.169524-2.535619-7.216762-4.778667-10.678857a59.050667 59.050667 0 0 1-4.681143-8.97219c-2.096762-4.973714-5.217524-9.313524-7.655619-14.043429a195.779048 195.779048 0 0 0-7.509333-13.848381c-2.535619-4.291048-4.778667-8.825905-7.801905-12.970667-1.219048-1.755429-3.072-3.413333-3.413333-5.363809-0.438857-2.730667-2.535619-4.681143-3.803429-6.339048-1.852952-2.145524-1.950476-6.046476-5.510095-6.875428 0 0-0.146286-0.341333-0.097524-0.487619 0.292571-2.925714-3.803429-3.754667-3.413333-6.729143-3.218286-1.121524-2.243048-5.705143-5.851429-6.631619 0 0-0.195048-0.24381-0.097524-0.341334 0.292571-2.925714-2.584381-4.583619-3.803428-6.485333a48.615619 48.615619 0 0 0-5.510096-6.826667c-0.975238-1.024-2.535619-1.950476-2.876952-3.218285-1.26781-4.388571-5.412571-6.534095-7.558095-10.386286-1.950476-3.510857-5.412571-5.851429-8.094476-8.777143a28.476952 28.476952 0 0 0-9.557334-7.314286c-3.413333-1.219048-6.144-4.047238-10.24-4.291047-4.242286-0.195048-8.289524-2.730667-12.678095-2.584381 0-0.975238-0.292571-1.657905-1.462857-1.657905H172.430385c-1.219048 0-1.462857 0.682667-1.462857 1.657905-2.925714-0.195048-4.534857 2.243048-5.510096 3.998476-2.145524 3.803429 0.975238 10.922667 5.217524 12.678095 1.755429 0.633905 2.730667 1.901714 3.900953 3.023238 0.682667 0.633905 1.316571 1.657905 2.243047 1.560381 1.755429-0.195048 2.535619 1.072762 3.072 2.096762 0.633905 1.462857 1.901714 1.950476 2.925714 2.438095a37.059048 37.059048 0 0 1 8.484572 5.997715c3.803429 3.559619 8.045714 6.436571 12.190476 9.411047 3.413333 2.535619 6.144 5.802667 9.898667 7.801905 2.82819 1.462857 4.388571 4.778667 7.070476 6.095238 3.803429 1.950476 5.948952 5.558857 9.606095 7.41181a19.260952 19.260952 0 0 1 5.607619 5.022476c1.462857 1.657905 4.096 1.80419 5.315048 3.413333 3.413333 5.168762 9.264762 7.460571 13.312 12.044191 3.900952 4.486095 9.45981 7.168 13.555809 11.946666 4.87619 5.607619 11.410286 9.557333 16.62781 14.872381 3.754667 3.657143 7.460571 7.070476 11.166476 10.581334 2.925714 2.730667 5.851429 5.412571 8.630857 8.289523 2.048 2.096762 4.681143 3.657143 6.582857 5.461334 4.729905 4.632381 10.24 8.728381 13.604572 14.628571l0.682666 0.975238c3.657143 3.364571 7.314286 6.826667 10.873905 10.337524 4.388571 4.33981 8.582095 9.069714 13.312 13.214476a17.65181 17.65181 0 0 1 4.876191 5.36381c0.975238 2.29181 2.535619 3.657143 4.096 5.168762 3.998476 3.803429 8.387048 7.509333 11.215238 12.531809 1.170286 2.048 3.608381 2.730667 4.87619 4.729905 1.560381 2.486857 3.998476 4.242286 5.607619 6.92419 2.340571 3.85219 6.38781 6.534095 9.069715 10.532572 2.633143 3.998476 6.144 7.801905 9.557333 11.166476 3.754667 3.803429 6.339048 8.43581 10.435048 11.897905 2.096762 1.80419 2.29181 5.12 5.022476 6.192762 1.365333 0.633905 1.80419 1.80419 2.194285 2.779428 1.462857 3.120762 4.144762 5.315048 5.851429 8.240762 1.706667 2.876952 4.534857 4.729905 6.436571 7.606857 3.510857 5.36381 7.558095 10.581333 11.897905 15.36 1.414095 1.609143 1.26781 4.096 3.31581 4.876191 3.072 1.26781 3.608381 4.534857 5.12 6.729143 2.145524 2.876952 4.87619 5.315048 6.436571 8.435809 1.657905 3.31581 4.388571 5.851429 6.144 8.972191 1.657905 2.730667 3.705905 5.217524 5.36381 7.996952 1.26781 2.096762 2.438095 4.486095 4.193524 6.339048 1.950476 1.950476 2.584381 4.973714 4.87619 6.826666 2.048 1.657905 2.438095 4.388571 4.388571 6.290286 1.950476 2.145524 2.779429 5.412571 4.973715 7.558095 1.950476 1.755429 2.82819 4.291048 4.144762 6.339048 0.975238 1.511619 2.925714 2.438095 3.218285 4.388571 0.195048 2.194286 1.852952 3.510857 2.925715 5.12 1.657905 2.486857 3.85219 4.924952 4.827428 7.314286 1.755429 4.388571 4.778667 7.704381 6.875429 11.702857 2.535619 4.388571 5.607619 8.777143 8.094476 13.312 1.950476 3.267048 3.754667 6.582857 5.851429 9.606095 0.877714 1.609143 0.682667 3.657143 2.389333 4.778667 2.048 1.462857 2.486857 3.998476 3.657143 6.046476 0.975238 1.755429 1.706667 3.998476 3.169524 5.217524 1.170286 1.024 1.170286 1.950476 1.462857 3.218286 1.706667 0.633905 2.584381-0.731429 3.608381-1.657905l8.192-8.143238 16.920381-16.62781c4.778667-4.827429 9.264762-9.849905 14.238476-14.482285 8.777143-7.996952 16.822857-16.62781 25.6-24.771048 5.705143-5.315048 10.825143-11.215238 17.066666-15.993905 5.558857-4.144762 10.142476-9.45981 15.116191-14.336l11.02019-11.02019c3.85219-3.803429 8.777143-6.241524 12.288-10.337524a3.267048 3.267048 0 0 1 1.121524-0.975238c3.705905-1.462857 6.241524-4.486095 9.313524-6.729143 3.608381-2.535619 7.168-5.12 10.630095-7.801905 1.80419-1.414095 4.047238-2.048 5.558857-3.559619 4.388571-4.437333 10.24-6.436571 15.36-9.508571a221.866667 221.866667 0 0 1 16.62781-9.069714c4.144762-1.950476 7.704381-4.924952 12.04419-5.753905 5.12-1.121524 8.777143-4.486095 13.55581-6.046476 1.462857-0.341333 3.267048-0.536381 4.632381-1.560381 2.730667-2.194286 6.534095-2.194286 9.606095-3.657143 1.462857-0.731429 3.120762-1.657905 4.778667-1.950476 3.900952-0.438857 7.168-2.194286 10.873905-3.169524 0.975238-0.195048 1.80419-0.78019 0.926476-2.048z" fill="#00D6B9" p-id="10520"></path><path d="M876.259718 641.26781c-1.024-0.633905-1.755429 0.24381-2.389333 0.926476-1.950476 1.755429-3.413333 4.096-5.022476 6.144l-8.387048 9.849904c-5.802667 6.339048-12.04419 12.385524-18.334476 18.090667-4.87619 4.486095-10.337524 8.289524-15.652572 12.288-1.950476 1.462857-3.900952 3.072-5.948952 4.388572-2.243048 1.560381-4.193524 3.608381-6.631619 4.632381-4.583619 1.950476-8.679619 4.827429-12.970667 7.314285a192.609524 192.609524 0 0 1-23.064381 10.727619c-4.437333 1.852952-8.874667 3.900952-13.409524 5.266286-3.705905 1.170286-7.314286 2.730667-11.02019 3.657143-1.26781 0.292571-2.535619 0.195048-3.754667 0.633905-3.657143 1.316571-7.509333 2.194286-11.361523 3.120762-3.267048 0.828952-6.826667 0.146286-9.752381 1.462857-4.291048 2.096762-9.264762 0.146286-13.409524 2.925714-6.38781 0-12.678095 0.633905-19.017143 1.170286-11.312762 0.877714-22.576762-0.731429-33.840762-1.072762-5.12-0.146286-9.99619-2.681905-15.11619-1.950476h-0.48762a0.828952 0.828952 0 0 1-0.195047-0.146286 1.706667 1.706667 0 0 1-0.195048-0.146286c-1.657905-1.26781-3.657143-1.26781-5.510095-1.267809-3.949714 0-7.801905-0.828952-11.50781-1.511619-3.657143-0.78019-7.363048-2.194286-10.922666-3.413334-2.145524-0.682667-4.437333-0.341333-6.339048-1.267809a31.98781 31.98781 0 0 0-8.777143-2.779429c-7.070476-1.462857-13.507048-4.388571-20.626285-5.558857-4.681143-0.78019-8.777143-3.413333-13.409524-4.388571-3.364571-0.731429-6.534095-1.901714-9.703619-2.925715-3.998476-1.26781-8.045714-2.681905-12.190476-3.705904-6.485333-1.80419-12.434286-4.534857-18.822096-6.582858-7.606857-2.535619-14.969905-5.510095-22.625523-8.045714-4.437333-1.462857-8.43581-4.193524-13.312-4.924952a17.017905 17.017905 0 0 1-5.802667-2.194286c-3.608381-2.048-7.704381-2.730667-11.264-4.486095-3.072-1.511619-6.534095-2.243048-9.557333-3.705905-4.973714-2.584381-10.727619-3.31581-15.262477-6.92419a1.901714 1.901714 0 0 0-1.121523-0.292572c-3.608381-0.390095-6.875429-2.048-10.093715-3.657143-6.92419-3.413333-14.384762-5.656381-21.162666-9.362285-5.461333-2.974476-11.410286-4.729905-16.871619-7.65562-1.26781-0.24381-2.340571 0-3.608381-0.633904-2.243048-1.170286-4.388571-2.925714-6.729143-3.608381-4.486095-1.219048-7.801905-4.486095-12.190476-5.753905-2.535619-0.682667-4.437333-2.925714-6.777905-3.510857-2.925714-0.731429-5.36381-2.194286-7.655619-3.510857-3.85219-2.194286-8.094476-3.657143-11.995429-6.046476-2.096762-1.316571-4.87619-1.80419-6.680381-3.31581-2.779429-2.29181-7.070476-2.194286-8.97219-5.705143-4.681143-0.390095-7.801905-3.949714-11.849143-5.607619-4.778667-1.950476-9.069714-5.022476-13.653333-7.558095-1.901714-1.072762-3.608381-3.072-5.461334-3.413333-4.973714-0.975238-8.338286-4.534857-12.434286-6.777905a142.238476 142.238476 0 0 1-13.897142-8.289524c-0.78019-0.487619-1.852952-0.390095-2.340572-0.975238-2.925714-3.267048-7.070476-4.924952-10.727619-7.168a469.23581 469.23581 0 0 1-10.532571-6.38781c-4.388571-2.779429-8.777143-5.461333-12.873143-8.338285-2.730667-1.950476-6.144-3.218286-8.533333-5.461334-1.706667-1.560381-3.803429-2.145524-5.60762-3.608381-3.218286-2.633143-6.972952-4.827429-10.435047-7.168-1.609143-1.121524-3.754667-2.145524-4.876191-3.364571-2.096762-2.29181-4.973714-3.510857-7.216762-5.36381-3.413333-2.876952-7.606857-4.87619-10.971428-7.850666-1.950476-1.755429-4.87619-2.048-6.339048-4.486096a4.144762 4.144762 0 0 0-2.779428-1.950476c-2.243048-0.682667-3.803429-2.438095-5.558857-3.705904-2.730667-1.852952-5.12-4.33981-7.948191-6.241524-3.31581-2.243048-6.290286-5.266286-9.752381-7.314286-3.705905-2.243048-6.339048-5.753905-10.044952-7.850667-2.29181-1.462857-3.657143-3.998476-5.851429-5.022476-3.900952-1.706667-6.339048-5.168762-9.898666-7.314286-2.730667-1.755429-4.632381-5.071238-7.606858-6.582857-3.413333-1.852952-5.510095-5.022476-8.582095-7.168-0.828952-0.633905-1.901714-0.731429-2.681905-1.755428-1.950476-2.389333-4.681143-4.193524-6.92419-6.290286-2.438095-2.194286-5.412571-3.657143-7.655619-6.290286-1.706667-1.901714-3.608381-4.437333-5.753905-5.363809-3.413333-1.26781-4.87619-4.193524-7.509333-6.144-3.31581-2.29181-5.753905-5.705143-8.923429-8.289524-2.048-1.560381-4.388571-2.82819-5.997714-4.876191-2.438095-3.072-5.461333-5.705143-8.289524-8.289523-3.657143-3.608381-7.168-7.314286-10.873905-10.776381-2.925714-2.584381-5.656381-5.510095-8.630857-8.192-2.779429-2.438095-5.266286-5.266286-8.094476-7.704381-3.705905-3.413333-7.119238-7.314286-10.532571-10.873905-3.462095-3.559619-7.168-6.972952-10.581334-10.727619-2.876952-3.218286-5.851429-7.168-11.459047-6.046476-2.82819 0.633905-4.096 2.389333-5.12 4.632381-2.876952 0.292571-1.706667 2.535619-1.706667 3.754666v414.232381c0 1.657905 0.195048 3.267048 0.097524 4.876191 0 1.26781 0.390095 1.80419 1.609143 1.901714-0.78019 3.85219 1.80419 6.826667 2.389333 10.337524 0.390095 2.584381 1.950476 4.632381 2.925714 6.972952 1.414095 3.218286 4.096 5.90019 5.997715 8.972191a25.161143 25.161143 0 0 0 6.436571 6.729143c2.681905 1.950476 5.36381 3.900952 8.192 5.656381 3.413333 1.901714 6.582857 4.242286 9.752381 6.436571 0.926476 0.633905 1.999238 0.78019 3.023238 1.706667a48.030476 48.030476 0 0 0 10.24 6.436571c2.438095 1.26781 4.729905 2.925714 7.363048 3.998476 5.851429 2.438095 10.825143 6.826667 16.822857 9.167238 3.364571 1.26781 5.90019 3.657143 9.362285 4.681143 0.78019 0.292571 1.706667 0.390095 2.438096 0.828953 4.778667 3.31581 10.24 5.266286 15.457524 7.850666 1.121524 0.682667 2.535619 0.682667 3.364571 1.316572a21.455238 21.455238 0 0 0 9.508571 4.291047c0.633905 0.097524 1.170286 0.146286 1.852953 0.682667 1.462857 1.072762 3.218286 1.950476 4.924952 2.925714 1.950476 1.024 4.388571 0.390095 6.144 2.243048a6.777905 6.777905 0 0 0 3.462095 1.950476c5.12 0.975238 9.849905 3.413333 14.628572 5.217524 1.462857 0.682667 3.364571 0 4.388571 1.170286 1.950476 1.950476 4.632381 1.950476 6.826667 2.876952 3.169524 1.414095 6.534095 2.584381 10.24 3.413333 1.462857 0.390095 3.559619 0 4.486095 1.072762 1.852952 2.048 4.632381 2.145524 6.631619 2.681905 5.217524 1.26781 10.337524 2.925714 15.457524 4.681143 4.096 1.462857 8.728381 1.80419 13.06819 3.072 3.657143 0.975238 7.314286 2.243048 10.922667 2.876952 1.755429 0.292571 4.193524-0.390095 5.12 0.487619 2.82819 2.779429 6.631619 1.170286 9.752381 2.730667a24.137143 24.137143 0 0 0 11.215238 1.755429c0.828952-0.048762 1.901714-0.24381 2.29181 0.146285 2.876952 2.925714 7.41181 0 10.24 3.023238 6.534095 0.536381 13.116952 0.877714 19.553524 2.730667 4.193524 1.26781 8.777143 0.633905 13.165714 1.609143 5.36381 1.26781 11.117714 0.877714 16.676571 1.462857 3.657143 0.341333 7.216762 0.195048 10.873905 0.24381 0 1.170286 0.633905 1.609143 1.80419 1.56038h78.994286c1.121524 0 1.852952-0.390095 1.852953-1.56038 8.777143 0.487619 17.408-1.609143 26.087619-1.26781h4.827428c1.170286 0 1.852952-0.487619 1.755429-1.657905 3.900952-0.24381 7.801905-0.682667 11.702857-1.462857 6.144-1.316571 12.580571-0.975238 18.724571-2.925714 3.072-1.072762 6.582857-0.877714 9.849905-1.706667 3.85219-0.877714 7.850667-1.950476 12.044191-1.609143 0.438857 0 1.121524 0 1.365333-0.195047 2.048-2.730667 5.461333-1.462857 8.192-2.730667a20.772571 20.772571 0 0 1 9.508571-1.657905c0.438857 0 0.975238 0 1.462857-0.195047a23.405714 23.405714 0 0 1 9.362286-3.023238 62.073905 62.073905 0 0 0 12.970667-3.413334c3.120762-1.121524 6.339048-1.950476 9.606095-2.535619 0.633905-0.097524 1.462857-0.097524 1.852952-0.585143 1.852952-1.901714 4.486095-1.901714 6.582858-2.535619 4.242286-1.072762 8.289524-2.681905 12.434285-3.998476 1.414095-0.292571 2.974476 0.097524 4.144762-0.682667a25.697524 25.697524 0 0 1 11.800381-4.583619 3.31581 3.31581 0 0 0 0.877714-0.390095c1.950476-1.170286 3.657143-2.584381 6.095239-2.82819a29.208381 29.208381 0 0 0 9.459809-3.510858c2.535619-1.316571 5.315048-2.243048 7.850667-3.510857 1.950476-1.024 4.096-2.340571 6.485333-2.779428 3.413333-0.585143 5.753905-3.510857 9.216-4.291048a25.746286 25.746286 0 0 0 7.460572-3.169524c3.705905-2.048 7.655619-3.900952 11.410285-5.656381 2.438095-1.26781 5.168762-2.29181 7.168-3.705904 3.023238-2.096762 6.192762-3.900952 9.557334-5.315048 4.193524-1.950476 7.996952-4.632381 12.141714-6.38781 3.705905-1.755429 7.021714-4.388571 10.630095-6.387809 1.852952-1.121524 3.510857-2.730667 5.315048-3.608381 1.950476-1.024 3.949714-2.194286 5.851428-3.413333 2.438095-1.706667 5.36381-2.730667 7.509334-4.876191 1.950476-1.901714 4.486095-2.535619 6.387809-4.242286 2.389333-1.950476 5.510095-2.925714 7.704381-5.12 0.78019-0.78019 1.219048-1.462857 2.243048-1.462857a4.242286 4.242286 0 0 0 0.828952-0.243809 3.023238 3.023238 0 0 0 0.731429-0.390095 3.413333 3.413333 0 0 0 1.121523-1.26781 6.582857 6.582857 0 0 1 2.048-2.048 6.339048 6.339048 0 0 1 0.877715-0.438857c3.462095-1.219048 5.266286-4.437333 8.484571-6.144 1.950476-0.877714 3.608381-2.730667 5.461334-4.096 3.218286-2.145524 6.144-4.437333 9.167238-6.826667 1.657905-1.26781 3.120762-3.608381 4.778666-4.096 3.754667-1.170286 4.827429-5.12 8.192-6.582857a11.459048 11.459048 0 0 0 3.218286-2.389333c2.584381-2.876952 5.753905-5.217524 8.777143-8.045715 1.80419-1.950476 4.291048-2.82819 6.095238-4.87619 2.048-2.535619 4.33981-4.827429 6.826667-6.92419 2.194286-1.80419 4.242286-3.754667 6.144-5.851429l10.971428-10.922667c3.608381-3.510857 7.070476-7.070476 10.727619-10.532571a45.543619 45.543619 0 0 0 5.851429-6.826667 36.571429 36.571429 0 0 1 6.631619-7.021714c1.950476-1.511619 2.486857-3.803429 4.242286-5.412572a31.305143 31.305143 0 0 0 6.631619-7.558095c1.950476-3.413333 5.315048-5.510095 7.168-8.97219 1.26781-2.438095 3.85219-4.096 5.363809-6.534095 1.609143-2.633143 3.705905-4.973714 5.705143-7.314286 2.194286-2.584381 4.681143-5.36381 6.144-8.338286 1.560381-3.218286 4.291048-5.12 5.753905-8.289524a49.737143 49.737143 0 0 1 5.705143-8.094476c1.462857-1.852952 2.389333-3.85219 3.608381-5.753905 1.901714-2.925714 3.949714-5.802667 5.997714-8.679619 0.78019-1.26781 0.975238-2.535619 2.048-3.803428 1.950476-2.048 4.144762-4.486095 3.657143-7.899429" fill="#3370FF" p-id="10521"></path><path d="M1022.594194 392.338286c-0.390095-0.585143-0.877714-0.585143-1.462857-0.731429-1.657905-0.487619-3.413333-0.877714-4.87619-1.706667a29.549714 29.549714 0 0 0-5.168762-2.925714c-2.681905-1.121524-5.851429-1.462857-8.094476-3.120762-3.169524-2.438095-7.070476-2.340571-10.435048-4.096a25.990095 25.990095 0 0 0-7.704381-2.730666c-1.950476-0.341333-4.096-1.26781-6.095238-1.950477-2.681905-0.78019-5.558857-1.755429-8.289524-2.535619a163.84 163.84 0 0 1-15.213714-4.437333 23.113143 23.113143 0 0 0-7.021714-0.828952c-0.682667-2.925714-3.120762-1.170286-4.778667-1.560381-2.194286 0-4.242286-1.121524-6.290286-1.462857-6.631619-1.170286-13.409524-1.365333-20.187428-2.925715-5.36381-1.121524-11.166476-0.487619-16.676572-1.267809-3.31581-0.487619-6.582857-0.195048-9.947428-0.24381 0-1.26781-0.682667-1.609143-1.804191-1.609143h-32.134095c-1.170286 0-1.852952 0.341333-1.852953 1.609143-8.192-0.487619-16.188952 1.316571-24.380952 1.26781h-4.87619c-1.121524 0-1.657905 0.487619-1.706667 1.560381-4.681143-0.390095-9.118476 1.657905-13.750857 1.267809a1.462857 1.462857 0 0 0-0.877714 0.24381c-3.559619 2.584381-7.899429 1.657905-11.800381 2.925714-3.072 1.072762-6.826667 0.926476-9.752381 1.999238-2.340571 0.828952-4.973714 1.462857-7.314286 2.438095a20.967619 20.967619 0 0 1-9.118476 1.804191c0.048762 0.633905 0.195048 1.26781-0.633905 1.414095-1.80419 0.097524-3.462095 1.072762-5.12 1.462857-4.827429 1.26781-9.362286 3.072-14.043429 4.681143-4.096 1.462857-7.850667 3.657143-11.897904 4.583619-4.583619 1.121524-7.801905 4.729905-12.678096 5.36381a7.801905 7.801905 0 0 0-4.144762 1.462857 14.969905 14.969905 0 0 1-4.486095 2.730666 29.842286 29.842286 0 0 0-7.314285 3.55962c-3.31581 2.194286-7.021714 3.657143-10.24 5.753904-1.26781 0.975238-3.218286 0.585143-3.803429 1.560381-2.389333 4.096-7.168 4.144762-10.532571 6.729143-3.510857 2.681905-7.655619 4.729905-11.215239 7.314286-2.82819 2.29181-5.90019 4.33981-8.777142 6.631619a136.338286 136.338286 0 0 1-11.459048 8.777143c-1.999238 1.462857-3.218286 4.193524-5.36381 4.87619-3.364571 1.121524-5.168762 3.900952-7.314285 5.997714-2.194286 2.145524-4.681143 4.486095-6.924191 6.777905-3.31581 3.413333-6.92419 6.631619-10.435047 9.996191-2.633143 2.535619-4.87619 5.607619-7.801905 7.558095-4.388571 2.925714-7.655619 6.777905-11.264 10.24-3.657143 3.413333-7.314286 7.021714-10.873905 10.581333-4.047238 4.193524-8.582095 7.899429-12.483048 12.190476-3.31581 3.85219-7.216762 7.168-10.825142 10.630096-3.657143 3.559619-7.021714 7.41181-10.922667 10.873904-3.900952 3.413333-7.460571 7.021714-10.873905 10.825143a271.408762 271.408762 0 0 1-8.582095 8.484572c-2.925714 2.82819-5.461333 6.095238-9.118476 8.045714-0.390095 1.80419-1.852952 2.535619-3.169524 3.413333-3.803429 2.389333-6.826667 5.705143-10.044952 8.777143-2.194286 1.950476-3.998476 4.583619-6.436572 5.997715-4.144762 2.194286-7.021714 5.851429-10.678857 8.484571-4.388571 3.169524-8.97219 6.485333-12.775619 10.337524-1.950476 1.852952-4.87619 2.194286-6.095238 4.534857-1.024 2.048-3.657143 1.609143-4.924953 3.218286-2.584381 3.413333-6.729143 4.87619-9.75238 7.655619-1.901714 1.706667-4.437333 3.023238-6.63162 4.388571-1.414095 0.682667-2.925714 1.26781-4.096 2.340572a47.542857 47.542857 0 0 1-9.411047 6.534095c-1.462857 0.877714-3.413333 1.462857-4.534857 2.779428-2.048 2.145524-4.924952 3.169524-7.216762 5.12a29.988571 29.988571 0 0 1-7.801905 4.632381c-3.657143 1.462857-6.436571 3.998476-9.801143 5.656381-4.486095 2.194286-8.777143 4.87619-13.263238 7.021715-1.170286 0.633905-3.120762 1.024-3.803428 2.58438 0 1.072762 0.487619 1.316571 1.316571 1.950477 2.048 1.121524 4.193524 1.365333 6.192762 2.194285 3.218286 1.462857 6.290286 3.267048 9.459809 4.632381 3.072 1.26781 5.656381 3.31581 9.264762 3.608381a9.752381 9.752381 0 0 1 4.486096 2.194286c2.194286 1.950476 5.022476 2.633143 7.314285 3.510857 2.048 0.731429 4.047238 2.048 6.38781 2.486857 1.462857 0.292571 3.462095 0.195048 4.632381 1.121524 2.048 1.560381 4.388571 2.438095 6.582857 3.803429 1.462857 0.877714 3.413333-0.292571 4.291047 0.975238 1.26781 1.852952 3.510857 2.194286 4.924953 2.681905 4.144762 1.462857 7.996952 3.169524 12.190476 4.827428 3.413333 1.462857 7.021714 2.438095 10.48381 4.388572 2.876952 1.560381 6.631619 1.609143 9.898666 2.925714 1.26781 0.682667 1.950476 1.80419 3.31581 1.950476a20.870095 20.870095 0 0 1 8.97219 2.681905c0.877714 0.633905 1.852952 1.657905 2.925715 1.950476 3.218286 0.633905 6.436571 1.365333 9.557333 2.681905 2.925714 1.219048 5.948952 2.535619 9.020952 2.925714 1.706667 0.24381 2.048 1.950476 3.705905 1.950476 2.82819 0 5.12 1.80419 7.801905 2.438095 3.657143 0.78019 7.265524 2.145524 10.825143 3.218286 0.828952 0.24381 2.194286-0.097524 2.584381 0.341333 2.145524 2.876952 5.851429 1.414095 8.777142 2.876953 3.169524 1.609143 7.314286 2.340571 10.971429 3.559619a32.182857 32.182857 0 0 0 10.922667 2.681905l0.390095 0.195047a25.990095 25.990095 0 0 0 8.192 3.169524c1.219048 0.24381 2.535619 0.487619 3.803428 0.633905 2.340571 0.390095 4.242286 1.950476 6.534096 2.096762 3.31581 0.195048 6.192762 2.243048 9.752381 2.389333 1.26781 0.048762 3.510857-0.146286 4.583619 0.975238 2.243048 2.194286 5.510095 2.096762 8.045714 2.730667 5.510095 1.462857 11.459048 1.121524 17.16419 3.023238 3.31581 1.121524 7.021714 0.731429 10.72762 1.560381 5.802667 1.316571 12.092952 0.926476 18.383238 1.316571 11.50781 0.682667 23.064381 0.438857 34.425904-0.926476 2.925714-0.390095 5.656381-0.487619 8.533334-1.267809 4.096-1.024 8.289524-1.657905 12.385524-1.950477 3.608381-0.341333 6.92419-1.901714 10.581333-1.462857a1.365333 1.365333 0 0 0 0.682667-0.292571c3.218286-1.950476 6.826667-1.950476 10.142476-3.072 2.340571-0.731429 5.12-0.633905 7.021714-1.804191a20.138667 20.138667 0 0 1 6.729143-2.535619c3.657143-0.682667 6.192762-3.657143 9.898667-3.413333l0.487619-0.24381a27.160381 27.160381 0 0 1 8.289523-3.85219c3.072-1.072762 6.046476-2.29181 8.923429-3.705905 3.803429-1.950476 7.41181-4.388571 11.117714-6.582857 1.170286-0.633905 2.730667 0.292571 3.510857-1.462857 0.633905-1.462857 1.950476-2.194286 3.705905-2.584381 1.950476-0.487619 4.096-1.26781 4.876191-3.413333 0.390095-0.975238 1.072762-1.072762 1.852952-0.975238 1.024 0 1.950476-0.487619 2.438095-1.365334 2.389333-3.510857 6.38781-5.12 9.606095-7.509333 3.413333-2.29181 5.997714-5.412571 9.508572-7.558095 4.193524-2.438095 7.216762-6.339048 10.532571-9.654857 2.876952-2.925714 5.558857-5.948952 8.582096-8.582096 2.340571-2.048 3.413333-4.87619 5.753904-6.875428 1.657905-1.462857 4.193524-2.925714 4.876191-5.12 0.975238-3.413333 3.803429-4.827429 6.095238-6.924191a14.433524 14.433524 0 0 1 2.535619-3.608381 13.06819 13.06819 0 0 1 1.072762-0.975238l0.877714-1.462857c1.219048-0.682667 0.585143-2.535619 1.950476-3.315809 2.29181-1.511619 3.169524-4.388571 4.193524-6.582858 1.609143-3.413333 3.559619-6.631619 5.461333-9.752381 2.048-3.510857 3.31581-7.314286 5.851429-10.532571 1.950476-2.486857 3.169524-5.753905 4.534857-8.679619 2.438095-5.12 5.071238-10.142476 7.801905-15.116191 1.609143-2.974476 3.072-5.997714 4.486095-9.118476 1.365333-3.169524 3.169524-6.192762 4.729905-9.264762 1.462857-3.218286 3.510857-6.144 4.681143-9.264762 1.462857-3.900952 3.608381-7.168 5.266286-10.873904 0.487619-1.365333 0.390095-2.925714 1.316571-3.900953a19.163429 19.163429 0 0 0 4.144762-7.168c1.462857-3.900952 4.729905-6.92419 5.12-11.215238l0.243809-0.146285c1.462857-1.121524 1.950476-2.925714 2.828191-4.486096 1.26781-2.438095 1.950476-5.217524 3.510857-7.460571 2.486857-3.510857 3.900952-7.41181 5.851429-11.215238 1.26781-2.29181 2.145524-4.87619 3.510857-7.021715 2.145524-3.462095 3.657143-7.363048 5.753904-10.727619a43.739429 43.739429 0 0 0 3.55962-7.704381c0.682667-1.80419 1.950476-3.510857 3.023238-5.12 1.950476-3.072 3.413333-6.582857 5.948952-9.362285 1.121524-1.121524 1.024-2.730667 2.29181-4.096 2.243048-2.145524 3.413333-5.12 5.12-7.655619 1.316571-1.950476 2.243048-4.242286 3.803428-5.705143a47.055238 47.055238 0 0 0 7.021714-9.362286c1.950476-3.169524 4.534857-5.997714 6.826667-8.679619 3.754667-4.486095 7.704381-8.97219 11.897905-13.458286l11.117714-11.751619c2.145524-2.340571 1.609143-2.82819 0-4.437333" fill="#133C9A" p-id="10522"></path></svg>