<svg width="16" height="16" viewBox="0 0 16 16" fill="none" xmlns="http://www.w3.org/2000/svg">
<g clip-path="url(#clip0_358_3068)">
<path d="M0 0H16V16H0V0Z" fill="white"/>
<path d="M1.875 4.75C1.53038 4.75 1.25 5.03038 1.25 5.375V14.125C1.25 14.4696 1.53038 14.75 1.875 14.75H10.625C10.9696 14.75 11.25 14.4696 11.25 14.125V5.375C11.25 5.03038 10.9696 4.75 10.625 4.75H1.875ZM1.875 3.5H10.625C11.6605 3.5 12.5 4.33947 12.5 5.375V14.125C12.5 15.1605 11.6605 16 10.625 16H1.875C0.839469 16 0 15.1605 0 14.125V5.375C0 4.33947 0.839469 3.5 1.875 3.5Z" fill="#0052D9"/>
<path d="M14.125 11.875H5.375C4.68575 11.875 4.125 11.3142 4.125 10.625V1.875C4.125 1.18575 4.68575 0.625 5.375 0.625H14.125C14.8142 0.625 15.375 1.18575 15.375 1.875V10.625C15.375 11.3142 14.8142 11.875 14.125 11.875Z" fill="white"/>
<path d="M5.375 1.25C5.03038 1.25 4.75 1.53038 4.75 1.875V10.625C4.75 10.9696 5.03038 11.25 5.375 11.25H14.125C14.4696 11.25 14.75 10.9696 14.75 10.625V1.875C14.75 1.53038 14.4696 1.25 14.125 1.25H5.375ZM5.375 0H14.125C15.1605 0 16 0.839469 16 1.875V10.625C16 11.6605 15.1605 12.5 14.125 12.5H5.375C4.33947 12.5 3.5 11.6605 3.5 10.625V1.875C3.5 0.839469 4.33947 0 5.375 0Z" fill="#0052D9"/>
<path d="M6.3125 3.8125H13.2188C13.3845 3.8125 13.5435 3.87835 13.6607 3.99556C13.7779 4.11277 13.8438 4.27174 13.8438 4.4375C13.8438 4.60326 13.7779 4.76223 13.6607 4.87944C13.5435 4.99665 13.3845 5.0625 13.2188 5.0625H6.3125C6.14674 5.0625 5.98777 4.99665 5.87056 4.87944C5.75335 4.76223 5.6875 4.60326 5.6875 4.4375C5.6875 4.27174 5.75335 4.11277 5.87056 3.99556C5.98777 3.87835 6.14674 3.8125 6.3125 3.8125Z" fill="#0052D9"/>
<path d="M6.3125 6.25H9.78125C9.94701 6.25 10.106 6.31585 10.2232 6.43306C10.3404 6.55027 10.4062 6.70924 10.4062 6.875C10.4062 7.04076 10.3404 7.19973 10.2232 7.31694C10.106 7.43415 9.94701 7.5 9.78125 7.5H6.3125C6.14674 7.5 5.98777 7.43415 5.87056 7.31694C5.75335 7.19973 5.6875 7.04076 5.6875 6.875C5.6875 6.70924 5.75335 6.55027 5.87056 6.43306C5.98777 6.31585 6.14674 6.25 6.3125 6.25Z" fill="#0052D9"/>
</g>
<defs>
<clipPath id="clip0_358_3068">
<rect width="16" height="16" fill="white"/>
</clipPath>
</defs>
</svg>
