<svg width="510" height="85" viewBox="0 0 510 85" fill="none" xmlns="http://www.w3.org/2000/svg">
<path d="M63.5334 21.999H57.8363V64.5848H63.5334V21.999Z" fill="white"/>
<path d="M86.7786 32.6552C84.4352 32.622 82.1097 33.0367 79.9502 33.8727C77.7907 34.7087 75.8444 35.9479 74.2346 37.5115C70.9551 40.6325 69.1225 44.7995 69.1225 49.1357C69.1225 53.4719 70.9551 57.6391 74.2346 60.7601C75.8704 62.2909 77.8224 63.5069 79.9762 64.3371C82.1301 65.1672 84.4426 65.5947 86.7786 65.5947C89.1146 65.5947 91.4272 65.1672 93.581 64.3371C95.7349 63.5069 97.6868 62.2909 99.3226 60.7601C102.602 57.6391 104.435 53.4719 104.435 49.1357C104.435 44.7995 102.602 40.6325 99.3226 37.5115C97.7183 35.9414 95.7728 34.6978 93.612 33.8613C91.4512 33.0248 89.1233 32.6139 86.7786 32.6552ZM86.7786 60.5184C85.1967 60.5512 83.6248 60.2786 82.165 59.7184C80.7052 59.1582 79.3899 58.3227 78.3041 57.2662C76.082 55.1259 74.869 52.2676 74.9286 49.3116C74.894 46.3021 76.1595 43.4025 78.4479 41.2471C79.4942 40.1757 80.7746 39.3187 82.2059 38.732C83.6372 38.1453 85.1871 37.8421 86.7547 37.8421C88.3222 37.8421 89.8721 38.1453 91.3034 38.732C92.7347 39.3187 94.0151 40.1757 95.0614 41.2471C97.3571 43.3909 98.6315 46.2836 98.6043 49.2896C98.6326 50.7576 98.3399 52.2161 97.7437 53.5786C97.1475 54.9411 96.26 56.1801 95.1333 57.2223C94.07 58.2784 92.7769 59.1174 91.3376 59.6853C89.8983 60.2531 88.3451 60.537 86.7786 60.5184Z" fill="white"/>
<path d="M134.106 45.0725C134.211 47.7415 134.027 50.4135 133.556 53.0491C133.146 54.3829 132.454 55.6298 131.521 56.7187C130.568 57.8511 129.359 58.7806 127.978 59.4435C126.684 60.0658 125.249 60.3972 123.788 60.4103C122.544 60.4438 121.305 60.242 120.15 59.8171C119.188 59.4479 118.359 58.8389 117.756 58.0592C117.072 57.1625 116.577 56.1563 116.296 55.0926C115.869 52.8592 115.7 50.5906 115.793 48.3246V33.4482H110.071V49.4453C109.896 52.6102 110.4 55.776 111.556 58.7623C112.517 60.7505 114.09 62.4381 116.08 63.6186C118.092 64.7861 120.427 65.3964 122.807 65.3765C124.962 65.3655 127.089 64.9279 129.043 64.0937C130.997 63.2594 132.733 62.0479 134.13 60.5422V64.5855H139.899V33.4482H134.13L134.106 45.0725Z" fill="white"/>
<path d="M52.2103 63.6839C48.5716 65.0635 44.6545 65.7152 40.7198 65.5956C28.487 65.5956 19.3182 58.476 19.3182 45.4014C19.3182 32.8762 28.511 24.4821 41.9886 24.4821C45.5254 24.3534 49.049 24.9463 52.3062 26.218L50.9178 30.4151C48.1714 29.2862 45.1888 28.7236 42.18 28.767C31.982 28.767 25.2313 34.7659 25.2313 45.2256C25.2313 54.9821 31.3597 61.2227 41.9886 61.2227C45.1448 61.2706 48.2766 60.7091 51.1811 59.5746L52.2103 63.6839Z" fill="white"/>
<path d="M223.111 49.8187C223.269 45.1764 221.418 40.6655 217.964 37.2715C216.356 35.7644 214.428 34.577 212.299 33.7832C210.169 32.9893 207.885 32.6059 205.588 32.6568C203.262 32.62 200.953 33.0335 198.812 33.8702C196.672 34.7069 194.747 35.9482 193.164 37.5131C189.954 40.6671 188.169 44.8217 188.169 49.1374C188.169 53.453 189.954 57.6078 193.164 60.7618C194.778 62.3362 196.736 63.5806 198.91 64.4135C201.084 65.2465 203.425 65.6495 205.779 65.5961C209.154 65.6743 212.482 64.8497 215.355 63.2228C218.275 61.348 220.636 58.8325 222.225 55.9054L222.393 55.6198L217.605 53.4224L217.438 53.686C216.41 55.8056 214.729 57.6029 212.603 58.8563C210.476 60.1097 207.995 60.7644 205.468 60.7398C204.015 60.7555 202.573 60.503 201.229 59.9971C199.884 59.4913 198.663 58.7424 197.64 57.7952C195.487 55.77 194.225 53.0856 194.097 50.2581H223.183L223.111 49.8187ZM205.588 37.7988C208.178 37.7988 210.698 38.5699 212.77 39.9962C214.751 41.3438 216.136 43.3021 216.671 45.5117H194.72C196.611 40.2819 200.154 37.7988 205.588 37.7988Z" fill="white"/>
<path d="M257.607 39.2708C256.656 37.2763 255.082 35.5862 253.083 34.4146C251.079 33.2501 248.752 32.6397 246.38 32.6566C244.221 32.6645 242.089 33.1006 240.13 33.935C238.172 34.7694 236.433 35.9823 235.033 37.4909V33.4478H229.263V64.585H235.033V52.9607C234.919 50.2908 235.112 47.6172 235.607 44.9841C236.002 43.645 236.694 42.3955 237.642 41.3144C238.589 40.177 239.799 39.2465 241.185 38.5896C242.475 37.9616 243.913 37.6299 245.374 37.6228C246.618 37.5936 247.856 37.7954 249.013 38.2161C249.962 38.6031 250.787 39.2086 251.407 39.974C252.099 40.8691 252.602 41.8753 252.891 42.9406C253.317 45.1742 253.485 47.4426 253.394 49.7085V64.585H259.091V48.5878C259.267 45.4228 258.762 42.2571 257.607 39.2708Z" fill="white"/>
<path d="M295.095 55.3764C293.77 57.0085 292.047 58.3335 290.064 59.2453C288.082 60.1572 285.894 60.6308 283.676 60.6282C281.951 60.6706 280.236 60.3883 278.634 59.7987C277.033 59.2092 275.579 58.3249 274.364 57.2003C273.181 56.1286 272.246 54.8478 271.616 53.4353C270.987 52.0228 270.675 50.508 270.702 48.982C270.668 47.4837 270.982 45.9959 271.621 44.6171C272.261 43.2383 273.212 41.9998 274.412 40.9834C276.913 38.8221 280.242 37.6535 283.676 37.7313C285.882 37.696 288.065 38.1488 290.04 39.0514C292.015 39.9541 293.724 41.28 295.023 42.9172L295.239 43.1588L299.764 40.5439L299.572 40.2582C297.999 37.8647 295.726 35.9236 293.013 34.6549C290.184 33.3224 287.047 32.6364 283.868 32.6552C281.346 32.5732 278.832 32.9658 276.482 33.8085C274.131 34.6511 271.993 35.9263 270.199 37.5555C268.503 39.0787 267.161 40.9021 266.256 42.9154C265.351 44.9287 264.901 47.0899 264.932 49.2677C264.893 51.4249 265.338 53.5663 266.24 55.5587C267.142 57.551 268.482 59.3515 270.175 60.8479C271.895 62.4033 273.939 63.6252 276.185 64.4406C278.43 65.256 280.831 65.6484 283.246 65.5944C286.472 65.6142 289.663 64.9683 292.582 63.7045C295.403 62.4874 297.817 60.5979 299.572 58.233L299.764 57.9693L295.311 55.1347L295.095 55.3764Z" fill="white"/>
<path d="M333.446 53.5986C332.418 55.7182 330.737 57.5154 328.61 58.7688C326.484 60.0222 324.003 60.677 321.476 60.6524C320.023 60.6681 318.581 60.4155 317.236 59.9096C315.892 59.4038 314.671 58.655 313.648 57.7078C311.494 55.6826 310.233 52.9982 310.105 50.1707H339.191V49.841C339.349 45.1987 337.498 40.688 334.044 37.2939C332.436 35.7869 330.508 34.5995 328.378 33.8056C326.249 33.0118 323.965 32.6284 321.668 32.6793C319.341 32.6425 317.033 33.0559 314.892 33.8927C312.752 34.7294 310.827 35.9706 309.244 37.5356C306.034 40.6895 304.249 44.8442 304.249 49.1598C304.249 53.4755 306.034 57.6303 309.244 60.7842C310.858 62.3587 312.816 63.603 314.99 64.436C317.164 65.269 319.505 65.6718 321.859 65.6184C325.235 65.6966 328.562 64.8722 331.435 63.2453C334.354 61.3705 336.716 58.855 338.305 55.9279L338.473 55.6422L333.685 53.4448L333.446 53.5986ZM321.764 37.8213C324.353 37.8213 326.873 38.5923 328.945 40.0187C330.927 41.3662 332.312 43.3246 332.847 45.5342H310.895C312.786 40.2824 316.329 37.7993 321.764 37.7993V37.8213Z" fill="white"/>
<path d="M182.965 63.3987C178.686 64.8395 174.165 65.5832 169.607 65.5961C166.645 65.8576 163.656 65.5207 160.85 64.6092C158.044 63.6978 155.49 62.2337 153.366 60.3199C151.243 58.406 149.601 56.0888 148.556 53.5306C147.512 50.9725 147.09 48.2355 147.32 45.5118C147.32 33.6238 156.249 24.9221 170.804 24.9221C174.524 24.8472 178.222 25.4678 181.673 26.746L180.284 30.9429C177.27 29.7267 173.999 29.1412 170.708 29.2289C160.175 29.2289 153.257 35.2499 153.257 45.2481C153.257 55.2463 159.864 61.3331 170.014 61.3331C172.559 61.4602 175.104 61.0934 177.483 60.2564V48.3684H168.698V44.2592H183.061L182.965 63.3987Z" fill="white"/>
<path d="M444.236 55.708H442.751L442.105 57.0704H443.565L444.236 55.708Z" fill="white"/>
<path d="M473.824 19.538L458.072 19.3184L456.923 24.2185H460.658L459.963 25.5589L448.281 25.4051L447.611 26.7675L456.277 26.8774L449.861 54.301H453.308L452.662 55.6634H445.48L444.834 57.0258H449.143L447.874 62.3875H451.657L450.986 63.7499H435.354L434.684 65.1123H457.785L461.471 49.247H467.361C479.929 49.4228 490.462 44.6105 490.677 31.8216C490.893 23.1199 483.591 19.6699 473.824 19.538ZM482.107 36.4361H474.925L474.279 37.7985H478.899C477.103 40.4574 473.608 41.8197 468.581 41.7538H463.291L466.618 27.1191H471.981C477.295 27.1191 480.311 29.0529 480.24 33.184C480.239 33.8107 480.174 34.4359 480.048 35.0517H482.681L482.107 36.4361Z" fill="white"/>
<path d="M351.783 26.2832H349.844L349.198 27.6457H351.137L351.783 26.2832Z" fill="white"/>
<path d="M368.828 65.5958H370.766L371.413 64.2334H369.474L368.828 65.5958Z" fill="white"/>
<path d="M394.203 31.492C394.203 22.9441 387.021 19.7578 377.134 19.7578H361.478L360.353 24.9218H363.729L363.058 26.2622H354.608L353.937 27.6246H359.754L353.363 56.4985H358.845L358.199 57.8609H341.393L340.723 59.2013H352.908L351.52 65.5958H362.029L365.643 48.7636H371.796L377.182 62.8709H381.204L380.558 64.2335H373.017L372.346 65.5958H389.271L381.515 47.4232C385.273 46.4627 388.568 44.3683 390.87 41.478C393.172 38.5877 394.346 35.0699 394.203 31.492ZM372.658 41.1607H367.344L370.264 27.3829H375.53C380.893 27.3829 383.861 29.0529 383.861 32.8984C383.837 37.8865 380.055 41.1607 372.634 41.1607H372.658Z" fill="white"/>
<path d="M396.405 19.7783H394.466L393.82 21.1407H395.759L396.405 19.7783Z" fill="white"/>
<path d="M420.033 19.7578H397.387L396.741 21.1202H412.061L411.415 22.4827H401.839L401.193 23.8451H408.088L399.565 62.8709H405.765L405.119 64.2335H394.826L394.179 65.5958H414.551C430.566 65.5958 442.033 55.8392 442.033 37.7546C442.105 25.6908 433.966 19.7578 420.033 19.7578ZM432.601 48.6318H424.127L423.48 49.9942H428.699C427.395 52.4438 425.343 54.4922 422.793 55.8891C420.242 57.286 417.303 57.9712 414.336 57.8609H411.175L417.759 27.4927H419.674C426.688 27.4927 431.285 30.7669 431.285 38.4798C431.321 41.458 430.852 44.4233 429.896 47.2694H433.2L432.601 48.6318Z" fill="white"/>
</svg>
