<svg width="264" height="44" viewBox="0 0 264 44" fill="none" xmlns="http://www.w3.org/2000/svg">
<path d="M32.8879 11.3877H29.9388V33.4321H32.8879V11.3877Z" fill="#4B4295"/>
<path d="M44.9207 16.9038C43.7077 16.8866 42.5039 17.1013 41.386 17.5341C40.2682 17.9668 39.2607 18.6083 38.4274 19.4177C36.7298 21.0332 35.7811 23.1903 35.7811 25.4349C35.7811 27.6795 36.7298 29.8367 38.4274 31.4522C39.2741 32.2447 40.2846 32.8741 41.3995 33.3038C42.5144 33.7336 43.7115 33.9549 44.9207 33.9549C46.13 33.9549 47.327 33.7336 48.442 33.3038C49.5569 32.8741 50.5673 32.2447 51.4141 31.4522C53.1117 29.8367 54.0604 27.6795 54.0604 25.4349C54.0604 23.1903 53.1117 21.0332 51.4141 19.4177C50.5836 18.6049 49.5765 17.9612 48.458 17.5282C47.3395 17.0951 46.1344 16.8824 44.9207 16.9038ZM44.9207 31.3271C44.1019 31.3441 43.2882 31.203 42.5325 30.913C41.7768 30.623 41.096 30.1905 40.5339 29.6436C39.3837 28.5357 38.7558 27.0561 38.7866 25.5259C38.7687 23.9681 39.4238 22.4671 40.6084 21.3514C41.15 20.7968 41.8128 20.3532 42.5537 20.0494C43.2946 19.7457 44.0969 19.5888 44.9083 19.5888C45.7198 19.5888 46.5221 19.7457 47.263 20.0494C48.0039 20.3532 48.6667 20.7968 49.2083 21.3514C50.3967 22.4611 51.0563 23.9585 51.0423 25.5146C51.0569 26.2745 50.9054 27.0294 50.5968 27.7347C50.2882 28.44 49.8287 29.0814 49.2455 29.6209C48.6951 30.1676 48.0257 30.6019 47.2807 30.8959C46.5356 31.1898 45.7316 31.3368 44.9207 31.3271Z" fill="#4B4295"/>
<path d="M69.4197 23.3317C69.4739 24.7133 69.3785 26.0965 69.1348 27.4608C68.9227 28.1512 68.5647 28.7967 68.0813 29.3603C67.5881 29.9465 66.9624 30.4277 66.2473 30.7708C65.5779 31.093 64.8346 31.2645 64.0787 31.2713C63.4346 31.2886 62.7934 31.1841 62.1951 30.9642C61.6976 30.7731 61.2683 30.4579 60.9559 30.0543C60.602 29.5901 60.3457 29.0692 60.2001 28.5186C59.9791 27.3625 59.892 26.1881 59.9399 25.0152V17.3145H56.9782V25.5953C56.8874 27.2336 57.1484 28.8723 57.7465 30.4182C58.2442 31.4474 59.0582 32.321 60.0886 32.9321C61.1298 33.5364 62.3387 33.8523 63.5706 33.842C64.6862 33.8363 65.7873 33.6098 66.7989 33.178C67.8104 32.7461 68.7086 32.119 69.4321 31.3395V33.4325H72.4185V17.3145H69.4321L69.4197 23.3317Z" fill="#4B4295"/>
<path d="M27.0265 32.9657C25.143 33.6798 23.1153 34.0172 21.0785 33.9553C14.7462 33.9553 10 30.2698 10 23.5018C10 17.0182 14.7586 12.673 21.7353 12.673C23.5661 12.6064 25.3901 12.9133 27.0761 13.5716L26.3575 15.7442C24.9358 15.1598 23.3919 14.8686 21.8344 14.8911C16.5554 14.8911 13.0609 17.9964 13.0609 23.4108C13.0609 28.4612 16.2333 31.6916 21.7353 31.6916C23.3691 31.7164 24.9902 31.4258 26.4938 30.8385L27.0265 32.9657Z" fill="#4B4295"/>
<path d="M115.493 25.7885C115.575 23.3854 114.617 21.0503 112.829 19.2934C111.996 18.5133 110.998 17.8986 109.896 17.4877C108.794 17.0768 107.611 16.8783 106.422 16.9047C105.218 16.8856 104.023 17.0996 102.915 17.5328C101.806 17.9659 100.81 18.6084 99.9905 19.4185C98.3293 21.0511 97.4053 23.2018 97.4053 25.4358C97.4053 27.6698 98.3293 29.8205 99.9905 31.4531C100.826 32.2681 101.84 32.9122 102.965 33.3434C104.09 33.7746 105.302 33.9832 106.521 33.9556C108.268 33.9961 109.991 33.5692 111.478 32.7271C112.989 31.7566 114.212 30.4544 115.034 28.9392L115.121 28.7914L112.643 27.6539L112.556 27.7904C112.024 28.8876 111.154 29.818 110.053 30.4668C108.952 31.1156 107.668 31.4544 106.36 31.4417C105.608 31.4498 104.861 31.3191 104.165 31.0573C103.469 30.7955 102.838 30.4078 102.308 29.9175C101.193 28.8691 100.54 27.4796 100.474 26.0159H115.53L115.493 25.7885ZM106.422 19.5664C107.763 19.5664 109.067 19.9655 110.14 20.7039C111.165 21.4014 111.882 22.4152 112.159 23.559H100.796C101.775 20.8518 103.609 19.5664 106.422 19.5664Z" fill="#4B4295"/>
<path d="M133.349 20.3283C132.857 19.2959 132.042 18.421 131.008 17.8145C129.97 17.2117 128.766 16.8957 127.538 16.9045C126.42 16.9086 125.316 17.1343 124.303 17.5662C123.289 17.9982 122.389 18.626 121.664 19.4069V17.314H118.677V33.4321H121.664V27.4149C121.605 26.0327 121.705 24.6488 121.961 23.2858C122.166 22.5926 122.524 21.9458 123.014 21.3862C123.505 20.7974 124.131 20.3157 124.848 19.9757C125.517 19.6506 126.261 19.4789 127.017 19.4752C127.661 19.4601 128.302 19.5646 128.901 19.7823C129.392 19.9827 129.819 20.2961 130.14 20.6923C130.498 21.1556 130.759 21.6765 130.908 22.2279C131.129 23.3842 131.216 24.5584 131.168 25.7313V33.4321H134.118V25.1512C134.209 23.5129 133.948 21.8742 133.349 20.3283Z" fill="#4B4295"/>
<path d="M152.755 28.6655C152.069 29.5104 151.177 30.1962 150.151 30.6683C149.125 31.1403 147.992 31.3855 146.844 31.3841C145.951 31.406 145.063 31.2599 144.234 30.9547C143.405 30.6495 142.653 30.1918 142.024 29.6097C141.411 29.0549 140.927 28.3919 140.601 27.6607C140.275 26.9295 140.114 26.1454 140.128 25.3555C140.111 24.5799 140.273 23.8097 140.604 23.096C140.935 22.3823 141.428 21.7412 142.049 21.215C143.343 20.0962 145.067 19.4913 146.844 19.5316C147.986 19.5133 149.116 19.7477 150.139 20.215C151.161 20.6822 152.046 21.3686 152.718 22.216L152.83 22.3411L155.172 20.9875L155.073 20.8397C154.258 19.6007 153.082 18.5959 151.677 17.9391C150.213 17.2493 148.589 16.8942 146.943 16.9039C145.638 16.8615 144.337 17.0647 143.12 17.5009C141.903 17.9372 140.796 18.5972 139.868 19.4406C138.99 20.2291 138.295 21.173 137.827 22.2151C137.358 23.2573 137.125 24.376 137.141 25.5034C137.121 26.6201 137.352 27.7285 137.819 28.7599C138.285 29.7912 138.979 30.7232 139.855 31.4978C140.746 32.303 141.804 32.9355 142.966 33.3576C144.129 33.7797 145.372 33.9828 146.621 33.9548C148.292 33.9651 149.943 33.6307 151.454 32.9766C152.915 32.3465 154.164 31.3684 155.073 30.1442L155.172 30.0077L152.867 28.5404L152.755 28.6655Z" fill="#4B4295"/>
<path d="M172.607 27.7452C172.075 28.8424 171.205 29.7727 170.104 30.4215C169.003 31.0704 167.719 31.4093 166.411 31.3966C165.659 31.4047 164.913 31.2739 164.217 31.0121C163.52 30.7502 162.889 30.3626 162.359 29.8723C161.244 28.824 160.591 27.4344 160.525 25.9708H175.581V25.8001C175.663 23.397 174.705 21.0621 172.917 19.3051C172.085 18.525 171.086 17.9104 169.984 17.4994C168.882 17.0885 167.7 16.89 166.51 16.9164C165.306 16.8973 164.111 17.1114 163.003 17.5445C161.895 17.9776 160.899 18.6201 160.079 19.4302C158.418 21.0629 157.494 23.2135 157.494 25.4475C157.494 27.6815 158.418 29.8322 160.079 31.4648C160.915 32.2798 161.928 32.924 163.054 33.3552C164.179 33.7863 165.391 33.9949 166.61 33.9672C168.357 34.0077 170.079 33.5809 171.566 32.7388C173.078 31.7683 174.3 30.4661 175.123 28.951L175.21 28.8031L172.731 27.6656L172.607 27.7452ZM166.56 19.5781C167.901 19.5781 169.205 19.9773 170.278 20.7156C171.303 21.4132 172.02 22.4269 172.297 23.5707H160.934C161.913 20.8521 163.747 19.5667 166.56 19.5667V19.5781Z" fill="#4B4295"/>
<path d="M94.7113 32.8179C92.4962 33.5638 90.1562 33.9487 87.7967 33.9554C86.2631 34.0907 84.7159 33.9164 83.2636 33.4445C81.8113 32.9727 80.489 32.2149 79.3896 31.2242C78.2902 30.2334 77.4404 29.0339 76.8997 27.7097C76.359 26.3855 76.1407 24.9687 76.2599 23.5588C76.2599 17.405 80.882 12.9006 88.4163 12.9006C90.3419 12.8618 92.2561 13.1831 94.0423 13.8447L93.3234 16.0173C91.7633 15.3877 90.0702 15.0846 88.3667 15.13C82.9142 15.13 79.333 18.2468 79.333 23.4223C79.333 28.5978 82.7532 31.7487 88.0074 31.7487C89.3245 31.8145 90.6419 31.6246 91.8737 31.1913V25.0375H87.3258V22.9104H94.7609L94.7113 32.8179Z" fill="#4B4295"/>
<path d="M229.957 28.8369H229.189L228.854 29.5421H229.61L229.957 28.8369Z" fill="#4B4295"/>
<path d="M245.274 10.1137L237.12 10L236.525 12.5366H238.458L238.099 13.2304L232.051 13.1508L231.704 13.856L236.19 13.9129L232.869 28.1087H234.654L234.319 28.8139H230.601L230.267 29.5192H232.497L231.841 32.2946H233.799L233.452 32.9998H225.36L225.013 33.7051H236.971L238.879 25.4925H241.928C248.434 25.5835 253.886 23.0924 253.998 16.4723C254.109 11.9678 250.33 10.182 245.274 10.1137ZM249.561 18.861H245.844L245.509 19.5662H247.901C246.971 20.9425 245.162 21.6478 242.56 21.6136H239.821L241.544 14.038H244.319C247.07 14.038 248.632 15.039 248.595 17.1775C248.594 17.5019 248.561 17.8255 248.495 18.1443H249.859L249.561 18.861Z" fill="#4B4295"/>
<path d="M182.099 13.6055H181.096L180.761 14.3108H181.765L182.099 13.6055Z" fill="#4B4295"/>
<path d="M190.923 33.9552H191.926L192.261 33.25H191.257L190.923 33.9552Z" fill="#4B4295"/>
<path d="M204.058 16.3017C204.058 11.8769 200.34 10.2275 195.222 10.2275H187.118L186.536 12.9007H188.283L187.936 13.5945H183.562L183.215 14.2997H186.226L182.917 29.2463H185.755L185.42 29.9515H176.721L176.374 30.6453H182.682L181.963 33.9555H187.403L189.274 25.2423H192.459L195.247 32.5449H197.329L196.995 33.2502H193.091L192.744 33.9555H201.505L197.49 24.5485C199.435 24.0512 201.141 22.9671 202.333 21.4709C203.524 19.9748 204.132 18.1538 204.058 16.3017ZM192.905 21.3067H190.154L191.666 14.1746H194.392C197.168 14.1746 198.705 15.0391 198.705 17.0297C198.692 19.6118 196.734 21.3067 192.893 21.3067H192.905Z" fill="#4B4295"/>
<path d="M205.198 10.2383H204.194L203.86 10.9435H204.863L205.198 10.2383Z" fill="#4B4295"/>
<path d="M217.429 10.2275H205.706L205.372 10.9328H213.302L212.968 11.6381H208.011L207.676 12.3433H211.245L206.834 32.5449H210.043L209.709 33.2502H204.38L204.046 33.9555H214.591C222.881 33.9555 228.817 28.905 228.817 19.5435C228.854 13.2987 224.641 10.2275 217.429 10.2275ZM223.935 25.1741H219.548L219.213 25.8793H221.915C221.24 27.1474 220.178 28.2077 218.857 28.9308C217.537 29.6539 216.016 30.0086 214.48 29.9515H212.844L216.252 14.2315H217.243C220.874 14.2315 223.253 15.9263 223.253 19.9189C223.272 21.4606 223.029 22.9955 222.534 24.4688H224.245L223.935 25.1741Z" fill="#4B4295"/>
</svg>
