<?xml version="1.0" standalone="no"?><!DOCTYPE svg PUBLIC "-//W3C//DTD SVG 1.1//EN" "http://www.w3.org/Graphics/SVG/1.1/DTD/svg11.dtd"><svg t="1747034638801" class="icon" viewBox="0 0 1024 1024" version="1.1" xmlns="http://www.w3.org/2000/svg" p-id="4807" xmlns:xlink="http://www.w3.org/1999/xlink" width="200" height="200"><path d="M448.277 768.481h319.79c6.04 0 11.023 4.982 11.023 11.024v6.36c0 6.041-4.982 11.023-11.024 11.023h-532.31c-6.041 0-11.023-4.982-11.023-11.024v-6.36c0-6.041 4.982-11.023 11.023-11.023h76.317L190.39 315.138c-4.664-16.641 5.3-34.025 22.365-38.688l384.446-102.922c16.642-4.664 34.025 5.3 38.689 22.365l86.598 322.862c63.915 4.664 114.263 57.98 114.263 122.955 0 68.262-55.33 123.273-123.273 123.273-37.31 0-70.593-16.323-93.276-42.61l-171.925 46.108z m155.178-69.957c-9.328-17.701-13.991-36.992-13.991-56.92 0-61.583 45.26-112.885 104.3-121.895L612.782 217.2c-2.65-9.965-13.038-16.006-23.32-13.356l-355.509 95.29c-9.963 2.65-16.005 13.037-13.355 23.319l114.9 428.434c2.65 9.963 13.037 16.005 23.318 13.355l244.638-65.717zM713.16 740.18c54.588 0 98.576-44.306 98.576-98.576 0-54.587-44.306-98.576-98.576-98.576s-98.575 44.307-98.575 98.576c-0.106 54.588 43.882 98.576 98.575 98.576z m-403.1-397.377l167.472-45.048c6.678-1.696 13.674 2.332 15.37 9.01l0.636 2.967c1.696 6.678-2.332 13.674-9.01 15.37l-167.261 44.942c-6.678 1.696-13.673-2.332-15.37-9.01l-0.635-2.968c-1.908-6.678 2.12-13.673 8.797-15.263zM815.763 768.48h176.27c6.043 0 11.024 4.982 11.024 11.024v6.36c0 6.041-4.981 11.023-11.023 11.023h-176.27c-6.043 0-11.024-4.982-11.024-11.024v-6.36c-0.318-5.935 4.663-11.023 11.023-11.023zM329.668 415.728l231.177-62.008c6.677-1.696 13.673 2.332 15.37 9.01l0.635 2.968c1.696 6.678-2.332 13.673-9.01 15.37l-231.176 62.007c-6.678 1.696-13.673-2.332-15.37-9.01l-0.635-2.968c-1.696-6.678 2.332-13.355 9.01-15.37z m19.61 73.349l103.557-27.665c6.678-1.696 13.674 2.332 15.37 9.01l0.636 2.967c1.696 6.678-2.332 13.674-9.01 15.37l-103.558 27.665c-6.677 1.696-13.673-2.332-15.369-9.01l-0.636-2.968c-1.908-6.784 2.014-13.78 9.01-15.37zM84.5 768.48h97.622c6.041 0 11.023 4.982 11.023 11.024v6.36c0 6.041-4.982 11.023-11.023 11.023H84.5c-6.042 0-11.024-4.982-11.024-11.024v-6.36c-0.318-5.935 4.664-11.023 11.024-11.023z m642.227-73.243c-6.678 1.696-13.674-2.014-15.37-8.692-1.695-6.677 2.332-13.355 9.01-14.945 6.678-1.696 13.674 2.014 15.37 8.692 1.695 6.571-2.332 13.25-9.01 14.945z m14.415-75.575c-1.378 4.346-4.982 10.706-11.023 19.291-2.968 4.346-4.982 7.632-5.3 9.964-0.318 2.332 0 6.042 1.696 11.342l-17.277 4.663c-0.636-2.332-0.954-4.027-1.378-4.663-1.378-5.618-1.696-10.282-0.954-14.31 0.954-4.028 3.286-9.01 7.631-14.945 4.346-6.042 6.996-9.646 7.632-11.342 0.954-2.65 1.378-5.3 0.636-7.95-0.954-3.71-3.286-6.36-6.996-8.373-3.71-1.696-7.95-2.014-13.037-0.636-4.664 1.378-8.374 3.71-11.024 7.314-2.65 3.71-3.71 10.281-3.286 14.31 0.318 3.709-16.323 9.645-18.019 2.649-1.696-7.314 0-16.005 4.664-23.319 4.982-7.314 12.295-12.296 22.683-14.945 11.024-2.968 20.351-2.332 28.3 1.696 7.95 4.027 13.038 9.645 14.946 17.277 1.696 3.286 1.378 7.95 0.106 11.977z m0 0M679.772 204.797c7.208-59.676 59.675-32.541 59.675-32.541 18.126-34.343 45.26-32.54 45.26-32.54 37.947 0 48.864 50.665 48.864 50.665 43.459-32.54 65.082 14.522 65.082 14.522H679.772z m-18.125 16.323h256.827s-7.208-75.999-77.8-54.27c0 0-37.947-85.008-106.738-16.323 0.106 0-77.695-23.531-72.29 70.593zM39.24 896.524c7.207-59.676 59.675-32.54 59.675-32.54 18.125-34.343 45.26-32.542 45.26-32.542 37.947 0 48.864 50.666 48.864 50.666 43.458-32.54 65.081 14.522 65.081 14.522H39.241zM21.22 912.74H278.05s-7.208-75.999-77.801-54.27c0 0-37.947-85.008-106.738-16.323 0 0.106-77.8-23.425-72.289 70.593z m0 0" p-id="4808"></path></svg>