<?xml version="1.0" standalone="no"?><!DOCTYPE svg PUBLIC "-//W3C//DTD SVG 1.1//EN" "http://www.w3.org/Graphics/SVG/1.1/DTD/svg11.dtd"><svg t="1747799540625" class="icon" viewBox="0 0 1024 1024" version="1.1" xmlns="http://www.w3.org/2000/svg" p-id="5870" xmlns:xlink="http://www.w3.org/1999/xlink" width="200" height="200"><path d="M991.5536 165.2v545.82c0 19.02 1.8 144.9-1.2 161.76-3.6 23.7-12.12 46.02-24.78 65.34-18 25.98-43.44 43.98-71.94 50.82-15.48 2.82-31.2 3.72-46.92 2.58H177.6536c-14.46 1.02-28.98 0.36-43.32-1.92a121.08 121.08 0 0 1-72.9-47.52 163.14 163.14 0 0 1-27-64.5c-3.54-18.18-1.92-146.64-1.92-168V206A336.66 336.66 0 0 1 35.6936 140C45.1136 94.16 74.3336 56.84 113.3936 40.76A176.4 176.4 0 0 1 181.9736 32.54h553.8c17.28 0 126.3 0.18 143.58 0.3 16.74 2.1 33 7.62 47.88 16.38 26.4 16.86 46.74 43.8 57.3 75.96 2.58 8.52 4.5 17.34 5.76 26.22l1.26 13.8z m-68.58 4.38l-0.48-5.7-3.12-13.68a62.46 62.46 0 0 0-22.92-30.9 89.58 89.58 0 0 0-52.44-8.76H167.8136a50.4 50.4 0 0 0-25.98 1.92c-18.18 5.52-32.58 21.18-38.22 41.52a195.84 195.84 0 0 0-2.34 45.36v514.38c0 15.42-1.62 138.18 1.2 151.38 2.58 10.8 7.2 20.82 13.8 29.28 14.1 19.8 37.44 19.38 69 19.38h658.68c12.72 1.02 25.44 0.36 38.04-1.92a55.8 55.8 0 0 0 30.06-22.68c12.6-19.5 11.1-144.54 11.1-177.84V169.58zM76.7936 370.04h870.72v77.88H76.7936V370.04z m0 285.48h870.72v77.82H76.7936v-77.82z m229.2-259.56H374.6936v519H305.9336v-519z m297.84 0h68.7v519H603.8936v-519z" fill="#333333" p-id="5871"></path></svg>