<svg class="loading-png" width="54" height="73" viewBox="0 0 54 73" xmlns="http://www.w3.org/2000/svg">
        <path
          d="M23.1169 59.4805H15.8442V41.2987H23.1169C24.6753 41.2987 25.974 41.2987 27.013 41.5584V29.6104C25.4545 29.8701 23.3766 29.8701 21.039 29.8701H15.8442V12.7273H21.039C24.6753 12.7273 27.5325 12.987 29.6104 13.2467C31.4286 13.5065 32.987 14.2857 33.7662 15.3247V0.519482C30.9091 1.97392e-06 27.7922 0 24.1558 0H0V71.948H26.7532C29.6104 71.948 31.9481 71.6883 34.2857 71.4286V57.6623C33.7662 57.9221 32.987 58.1818 32.2078 58.4416C29.8701 59.2208 27.013 59.4805 23.1169 59.4805Z"
          fill="#CED6DC"
        />
        <path d="M27.7923 1.2978L25.9741 0.77832L25.4546 2.5965L27.2728 3.11599L27.7923 1.2978Z" fill="#CED6DC" />
        <path d="M31.6886 32.4667L28.5717 31.4277L27.5327 34.5446L30.6496 35.5836L31.6886 32.4667Z" fill="#CED6DC" />
        <path d="M31.6884 36.1025L29.6105 35.3232L28.8313 37.4012L30.9092 38.1804L31.6884 36.1025Z" fill="#CED6DC" />
        <path d="M30.9091 38.7001L28.8312 37.9209L28.052 39.9988L30.1299 40.778L30.9091 38.7001Z" fill="#CED6DC" />
        <path d="M29.091 36.3613L27.0131 35.582L26.2339 37.66L28.3118 38.4392L29.091 36.3613Z" fill="#CED6DC" />
        <path d="M25.1949 32.9872L23.8962 32.4678L23.3767 33.7665L24.6754 34.2859L25.1949 32.9872Z" fill="#CED6DC" />
        <path d="M21.8179 32.4667L20.5192 31.9473L19.9998 33.246L21.2985 33.7654L21.8179 32.4667Z" fill="#CED6DC" />
        <path d="M29.3507 6.7529L28.3117 6.49316L28.052 7.53213L29.091 7.79187L29.3507 6.7529Z" fill="#CED6DC" />
        <path d="M28.5715 11.4277L26.7533 10.6484L25.9741 12.4666L27.7923 13.2458L28.5715 11.4277Z" fill="#CED6DC" />
        <path d="M32.4673 3.37688L30.3893 2.59766L29.6101 4.67559L31.688 5.4548L32.4673 3.37688Z" fill="#CED6DC" />
        <path d="M35.3247 2.07805L33.2467 1.29883L32.4675 3.63649L34.8052 4.4157L35.3247 2.07805Z" fill="#CED6DC" />
        <path d="M38.4416 7.27037L34.026 5.71191L32.4675 10.1275L36.8831 11.6859L38.4416 7.27037Z" fill="#CED6DC" />
        <path d="M40.2594 2.33779L37.1425 1.29883L36.1035 4.15597L38.9607 5.19493L40.2594 2.33779Z" fill="#CED6DC" />
        <path d="M42.0777 12.2069L39.2206 11.168L38.1816 14.2848L41.0388 15.3238L42.0777 12.2069Z" fill="#CED6DC" />
        <path d="M40.7794 23.6347L37.6625 22.5957L36.6235 25.7126L39.7404 26.7516L40.7794 23.6347Z" fill="#CED6DC" />
        <path d="M39.7401 8.57027L38.7011 8.05078L38.1816 9.08975L39.2206 9.60922L39.7401 8.57027Z" fill="#CED6DC" />
        <path d="M39.7405 6.23235L37.9223 5.45312L37.1431 7.53105L38.9612 8.31026L39.7405 6.23235Z" fill="#CED6DC" />
        <path d="M48.8309 18.7011L47.7919 18.1816L47.2725 19.4803L48.3114 19.9998L48.8309 18.7011Z" fill="#CED6DC" />
        <path d="M51.4287 12.9853L49.6105 12.2061L48.8313 14.0242L50.6495 14.8035L51.4287 12.9853Z" fill="#CED6DC" />
        <path d="M50.6493 21.037L47.7921 19.998L46.7532 22.8552L49.6103 23.8942L50.6493 21.037Z" fill="#CED6DC" />
        <path d="M46.4935 16.3623L45.4545 15.8428L44.9351 17.1415L45.974 17.661L46.4935 16.3623Z" fill="#CED6DC" />
        <path d="M38.9609 28.831L37.1427 28.0518L36.3635 29.8699L38.1817 30.6492L38.9609 28.831Z" fill="#CED6DC" />
        <path d="M35.8443 25.4531L34.5456 24.9336L34.0261 26.2323L35.3248 26.7518L35.8443 25.4531Z" fill="#CED6DC" />
        <path d="M36.1038 16.3623L34.8051 15.8428L34.2856 17.1415L35.5843 17.661L36.1038 16.3623Z" fill="#CED6DC" />
        <path d="M34.0257 12.4668L32.727 11.9473L32.2075 13.246L33.5062 13.7655L34.0257 12.4668Z" fill="#CED6DC" />
        <path d="M43.8961 26.7519L42.5974 26.2324L42.0779 27.5311L43.3766 28.0506L43.8961 26.7519Z" fill="#CED6DC" />
        <path d="M48.3119 11.1669L43.8963 9.6084L42.3379 13.7643L46.7535 15.3227L48.3119 11.1669Z" fill="#CED6DC" />
        <path d="M44.4154 3.37593L43.1167 2.85645L42.5972 4.15515L43.8959 4.67464L44.4154 3.37593Z" fill="#CED6DC" />
        <path d="M37.9222 41.8163L35.0651 40.7773L34.0261 43.6345L36.8833 44.6734L37.9222 41.8163Z" fill="#CED6DC" />
        <path d="M41.2989 60.5185L39.7404 59.999L39.2209 61.2977L40.5196 61.8172L41.2989 60.5185Z" fill="#CED6DC" />
        <path d="M35.8444 56.8828L35.0651 56.623L34.5457 57.662L35.3249 57.9217L35.8444 56.8828Z" fill="#CED6DC" />
        <path d="M40.0002 59.2186L36.1041 57.6602L34.5457 61.5563L38.4418 63.1147L40.0002 59.2186Z" fill="#CED6DC" />
        <path d="M36.3638 64.9345L35.0651 64.415L34.5457 65.9735L35.8444 66.4929L36.3638 64.9345Z" fill="#CED6DC" />
        <path d="M42.8571 65.1952L38.4415 63.6367L36.8831 68.0523L41.2986 69.6108L42.8571 65.1952Z" fill="#CED6DC" />
        <path d="M48.0519 63.1171L45.7143 62.3379L44.9351 64.6756L47.2727 65.4548L48.0519 63.1171Z" fill="#CED6DC" />
        <path d="M52.7273 54.2841L51.1689 53.7646L50.6494 55.3231L52.2079 55.8426L52.7273 54.2841Z" fill="#CED6DC" />
        <path d="M51.169 51.4267L50.1301 51.167L49.6106 52.206L50.6495 52.7254L51.169 51.4267Z" fill="#CED6DC" />
        <path d="M48.0517 56.3613H47.5322L47.2725 56.8808L47.7919 57.1406L48.0517 56.3613Z" fill="#CED6DC" />
        <path d="M39.7402 70.6484L39.2207 70.3887L38.9609 70.9082L39.4804 71.1679L39.7402 70.6484Z" fill="#CED6DC" />
        <path d="M51.4284 59.7392L48.831 58.7002L47.792 61.2976L50.3894 62.3366L51.4284 59.7392Z" fill="#CED6DC" />
        <path d="M45.4544 20.5184L42.0778 19.2197L40.7791 22.5963L44.1557 23.895L45.4544 20.5184Z" fill="#CED6DC" />
        <path d="M49.8703 39.4793L45.9742 37.9209L44.4158 41.817L48.3119 43.3754L49.8703 39.4793Z" fill="#CED6DC" />
        <path d="M46.2337 57.4012L42.8571 56.1025L41.5583 59.4792L44.935 60.7779L46.2337 57.4012Z" fill="#CED6DC" />
        <path d="M53.2468 46.7509L50.9091 45.9717L50.1299 48.3093L52.4675 49.0886L53.2468 46.7509Z" fill="#CED6DC" />
        <path d="M44.935 50.1278L40.5194 48.5693L38.9609 52.9849L43.3765 54.5434L44.935 50.1278Z" fill="#CED6DC" />
        <path d="M44.1559 45.4521L41.8183 44.6729L41.0391 47.0105L43.3767 47.7897L44.1559 45.4521Z" fill="#CED6DC" />
        <path d="M39.7401 55.8437L38.7011 55.3242L38.1816 56.3632L39.2206 56.8827L39.7401 55.8437Z" fill="#CED6DC" />
        <path d="M33.7665 57.4023L32.9873 57.1426L32.7275 57.9218L33.5068 58.1815L33.7665 57.4023Z" fill="#CED6DC" />
        <path d="M38.1821 70.1279L36.1042 69.3486L35.325 71.4266L37.4029 72.2058L38.1821 70.1279Z" fill="#CED6DC" />
        <path d="M34.805 70.3886L33.5063 69.8691L32.9868 71.1678L34.2855 71.6873L34.805 70.3886Z" fill="#CED6DC" />
        <path d="M32.2076 70.3886L30.9089 69.8691L30.3894 71.1678L31.6881 71.6873L32.2076 70.3886Z" fill="#CED6DC" />
        <path d="M34.5456 36.623L32.7275 35.8438L31.9482 37.6619L33.7664 38.4412L34.5456 36.623Z" fill="#CED6DC" />
        <path d="M28.3119 30.6484L27.0132 30.1289L26.7534 31.6873L28.0521 32.2068L28.3119 30.6484Z" fill="#CED6DC" />
        <path d="M29.091 30.3877L29.6105 30.6475L29.3508 31.1669L28.8313 30.9072L29.091 30.3877Z" fill="#CED6DC" />
        <path d="M34.286 29.6103L31.1691 28.5713L30.1301 31.6882L33.247 32.7271L34.286 29.6103Z" fill="#CED6DC" />
        <path d="M37.4024 34.5448L32.4674 32.7266L30.9089 37.6616L35.844 39.4798L37.4024 34.5448Z" fill="#CED6DC" />
        <path d="M35.3246 38.4394L34.5454 38.1797L34.2856 38.9589L35.0649 39.2187L35.3246 38.4394Z" fill="#CED6DC" />
        <path d="M37.922 30.6475L37.1428 30.3877L36.8831 31.1669L37.6623 31.4267L37.922 30.6475Z" fill="#CED6DC" />
        <path d="M40.7791 30.6484L39.4804 30.1289L38.9609 31.4276L40.2596 31.9471L40.7791 30.6484Z" fill="#CED6DC" />
        <path d="M32.7271 33.5048L31.4284 32.9854L30.9089 34.2841L32.2076 34.8035L32.7271 33.5048Z" fill="#CED6DC" />
        <path d="M41.8181 36.1025L39.7402 35.3232L38.9609 37.4012L41.0389 38.1804L41.8181 36.1025Z" fill="#CED6DC" />
        <path d="M44.6753 40.7792L42.8571 40.2598L42.0779 42.3377L44.1558 43.1169L44.6753 40.7792Z" fill="#CED6DC" />
        <path d="M39.2207 49.0898L37.1427 48.3105L36.3635 50.3885L38.4414 51.1677L39.2207 49.0898Z" fill="#CED6DC" />
        <path d="M38.4418 54.0244L37.4028 53.7646L37.1431 54.5439L38.182 54.8036L38.4418 54.0244Z" fill="#CED6DC" />
        <path d="M37.9223 51.9463L37.4028 51.6865L37.1431 52.206L37.6625 52.4657L37.9223 51.9463Z" fill="#CED6DC" />
        <path d="M37.4028 45.9726L36.8833 45.7129L36.6235 46.2324L37.143 46.4921L37.4028 45.9726Z" fill="#CED6DC" />
        <path d="M37.4028 56.3623L36.8833 56.1025L36.6235 56.622L37.143 56.8818L37.4028 56.3623Z" fill="#CED6DC" />
        <path d="M49.3505 39.4795L48.831 39.2197L48.5713 39.7392L49.0908 39.999L49.3505 39.4795Z" fill="#CED6DC" />
        <path d="M47.0131 50.1279L46.4936 49.8682L46.2339 50.3877L46.7534 50.6474L47.0131 50.1279Z" fill="#CED6DC" />
        <path d="M52.7272 58.9599L52.2078 58.7002L51.948 59.2197L52.4675 59.4794L52.7272 58.9599Z" fill="#CED6DC" />
        <path d="M40.0002 46.2314L39.4807 45.9717L39.2209 46.4912L39.7404 46.7509L40.0002 46.2314Z" fill="#CED6DC" />
        <path d="M46.4938 36.8818L45.9743 36.6221L45.7146 37.1416L46.2341 37.4013L46.4938 36.8818Z" fill="#CED6DC" />
        <path d="M39.7402 27.791L39.2207 27.5312L38.9609 28.0507L39.4804 28.3105L39.7402 27.791Z" fill="#CED6DC" />
        <path d="M28.8312 35.583L28.3117 35.3232L28.052 35.8427L28.5715 36.1025L28.8312 35.583Z" fill="#CED6DC" />
        <path d="M36.1042 22.5967L35.5847 22.3369L35.325 22.8564L35.8444 23.1161L36.1042 22.5967Z" fill="#CED6DC" />
        <path d="M34.5453 15.0625L34.0258 14.8027L33.7661 15.3222L34.2856 15.582L34.5453 15.0625Z" fill="#CED6DC" />
        <path d="M40.7794 41.0371L39.7404 40.7773L39.2209 42.076L40.5196 42.5955L40.7794 41.0371Z" fill="#CED6DC" />
        <path d="M32.9872 38.4394L31.9482 38.1797L31.4287 39.4784L32.7274 39.9979L32.9872 38.4394Z" fill="#CED6DC" />
        <path d="M35.5846 30.6475L34.5456 30.3877L34.0261 31.6864L35.3248 32.2059L35.5846 30.6475Z" fill="#CED6DC" />
        <path d="M50.9088 41.8163L49.6101 41.2969L49.0906 42.5956L50.3893 43.115L50.9088 41.8163Z" fill="#CED6DC" />
        <path d="M48.3114 45.1923L47.0127 44.6729L46.4932 45.9716L47.7919 46.491L48.3114 45.1923Z" fill="#CED6DC" />
        <path d="M48.5716 51.4267L47.5327 51.167L47.0132 52.4657L48.3119 52.9852L48.5716 51.4267Z" fill="#CED6DC" />
        <path d="M44.9354 54.8037L43.6367 54.2842L43.1172 55.5829L44.4159 56.1024L44.9354 54.8037Z" fill="#CED6DC" />
        <path d="M45.9742 67.0107L44.9352 66.751L44.4158 68.0497L45.7145 68.5692L45.9742 67.0107Z" fill="#CED6DC" />
        <path d="M43.3768 61.8164L42.3378 61.5566L41.8184 62.8553L43.1171 63.3748L43.3768 61.8164Z" fill="#CED6DC" />
        <path d="M45.9742 59.2187L44.9352 58.959L44.4158 60.2577L45.7145 60.7772L45.9742 59.2187Z" fill="#CED6DC" />
        <path d="M47.7924 28.5703L47.2729 28.3105L47.0132 28.83L47.5327 29.0898L47.7924 28.5703Z" fill="#CED6DC" />
        <path d="M45.974 30.6484L44.6753 30.1289L44.1558 31.4276L45.4545 31.9471L45.974 30.6484Z" fill="#CED6DC" />
        <path d="M50.3895 24.6747L49.0908 24.1553L48.5713 25.454L49.87 25.9734L50.3895 24.6747Z" fill="#CED6DC" />
        <path d="M49.0911 25.7119L47.5327 25.1924L47.0132 26.7508L48.5716 27.2703L49.0911 25.7119Z" fill="#CED6DC" />
        <path d="M46.4938 7.01169L45.9743 6.75195L45.7146 7.27145L46.2341 7.53118L46.4938 7.01169Z" fill="#CED6DC" />
        <path d="M38.4416 10.9082L37.9221 10.6484L37.6624 11.1679L38.1818 11.4277L38.4416 10.9082Z" fill="#CED6DC" />
        <path d="M42.5976 17.4013L42.0781 17.1416L41.8184 17.6611L42.3378 17.9208L42.5976 17.4013Z" fill="#CED6DC" />
        <path d="M34.2856 14.8047L33.7661 14.5449L33.5063 15.0644L34.0258 15.3242L34.2856 14.8047Z" fill="#CED6DC" />
        <path d="M32.2079 13.247L31.6885 12.9873L31.4287 13.5068L31.9482 13.7665L32.2079 13.247Z" fill="#CED6DC" />
        <path d="M35.3248 13.7646L34.2859 13.5049L34.0261 14.2841L35.0651 14.5438L35.3248 13.7646Z" fill="#CED6DC" />
        <path d="M34.8053 27.791L34.2859 27.5312L34.0261 28.0507L34.5456 28.3105L34.8053 27.791Z" fill="#CED6DC" />
        <path d="M50.3898 9.60935L49.8703 9.34961L49.6106 9.8691L50.1301 10.1288L50.3898 9.60935Z" fill="#CED6DC" />
        <path d="M50.3898 16.623L49.8703 16.3633L49.6106 16.8828L50.1301 17.1425L50.3898 16.623Z" fill="#CED6DC" />
        <path d="M41.8183 4.41501L41.2988 4.15527L41.0391 4.67477L41.5585 4.9345L41.8183 4.41501Z" fill="#CED6DC" />
        <path d="M42.3375 10.1279L41.2985 9.6084L40.7791 10.6474L41.818 11.1669L42.3375 10.1279Z" fill="#CED6DC" />
        <path d="M36.3634 1.03807L35.844 0.77832L35.5842 1.2978L36.1037 1.55754L36.3634 1.03807Z" fill="#CED6DC" />
        <path d="M48.5714 8.82906L47.2727 8.30957L46.7532 9.60827L48.0519 10.1278L48.5714 8.82906Z" fill="#CED6DC" />
        <path d="M43.8961 35.3252L42.5974 35.0654L42.0779 36.3641L43.3766 36.8836L43.8961 35.3252Z" fill="#CED6DC" />
        <path d="M41.2987 38.9599L40.5195 38.7002L40.2598 39.4794L41.039 39.7392L41.2987 38.9599Z" fill="#CED6DC" />
        <path d="M33.5065 41.0371L32.7273 40.7773L32.4675 41.5566L33.2467 41.8163L33.5065 41.0371Z" fill="#CED6DC" />
        <path d="M32.9871 41.038L31.6884 40.5186L31.1689 41.8173L32.4676 42.3367L32.9871 41.038Z" fill="#CED6DC" />
        <path d="M30.6495 30.6475L29.3508 30.3877L28.8313 31.6864L30.13 32.2059L30.6495 30.6475Z" fill="#CED6DC" />
        <path d="M28.3119 40.7783L27.7925 40.5186L27.5327 41.038L28.0522 41.2978L28.3119 40.7783Z" fill="#CED6DC" />
        <path d="M30.9091 41.5566L30.1299 41.2969L29.8701 42.0761L30.6493 42.3358L30.9091 41.5566Z" fill="#CED6DC" />
        <path d="M31.4284 40.7783L31.1687 40.5186L30.9089 40.7783L31.1687 41.038L31.4284 40.7783Z" fill="#CED6DC" />
        <path d="M34.5453 41.8183L34.0258 41.5586L33.7661 42.0781L34.2856 42.3378L34.5453 41.8183Z" fill="#CED6DC" />
        <path d="M31.6882 39.7383L31.1687 39.4785L30.9089 39.998L31.4284 40.2577L31.6882 39.7383Z" fill="#CED6DC" />
        <path d="M30.1298 36.8818L29.3506 36.6221L29.0908 37.4013L29.87 37.661L30.1298 36.8818Z" fill="#CED6DC" />
        <path d="M33.5065 34.0263L32.7273 33.7666L32.4675 34.5458L33.2467 34.8056L33.5065 34.0263Z" fill="#CED6DC" />
        <path d="M37.922 35.8418L37.1428 35.582L36.8831 36.3613L37.6623 36.621L37.922 35.8418Z" fill="#CED6DC" />
        <path d="M30.1298 28.831L29.3506 28.5713L29.0908 29.3505L29.87 29.6103L30.1298 28.831Z" fill="#CED6DC" />
        <path d="M28.5712 29.6103L28.0517 29.3506L27.792 29.8701L28.3115 30.1298L28.5712 29.6103Z" fill="#CED6DC" />
        <path d="M27.7919 29.6103L27.2724 29.3506L27.0127 29.8701L27.5322 30.1298L27.7919 29.6103Z" fill="#CED6DC" />
        <path d="M20.0001 35.3252L19.2209 35.0654L18.9612 36.1044L19.7404 36.3641L20.0001 35.3252Z" fill="#CED6DC" />
        <path d="M36.8832 38.1806L36.104 37.9209L35.8442 38.7001L36.6235 38.9599L36.8832 38.1806Z" fill="#CED6DC" />
        <path d="M26.4936 32.7275L25.7143 32.4678L25.4546 33.247L26.2338 33.5067L26.4936 32.7275Z" fill="#CED6DC" />
        <path d="M24.1557 35.0634L23.3764 34.8037L23.1167 35.5829L23.8959 35.8427L24.1557 35.0634Z" fill="#CED6DC" />
        <path d="M22.8572 35.0644L21.2988 34.5449L20.7793 36.1034L22.3377 36.6228L22.8572 35.0644Z" fill="#CED6DC" />
        <path d="M44.4154 31.9462L41.818 30.9072L40.7791 33.5046L43.3765 34.5436L44.4154 31.9462Z" fill="#CED6DC" />
        <path d="M40.2599 33.7655L37.6625 32.7266L36.6235 35.324L39.2209 36.3629L40.2599 33.7655Z" fill="#CED6DC" />
        <path d="M37.6625 31.1679L35.0651 30.1289L34.0261 32.7263L36.6235 33.7653L37.6625 31.1679Z" fill="#CED6DC" />
        <path d="M44.4155 7.01163L42.3376 6.23242L41.5583 8.31033L43.6363 9.08956L44.4155 7.01163Z" fill="#CED6DC" />
        <path d="M39.4807 17.9208L37.4028 17.1416L36.6235 19.2195L38.7015 19.9987L39.4807 17.9208Z" fill="#CED6DC" />
        <path d="M39.2204 13.246L36.8827 12.4668L36.1035 14.8044L38.4412 15.5837L39.2204 13.246Z" fill="#CED6DC" />
        <path d="M32.987 9.60929L30.6493 8.83008L29.8701 11.1677L32.2078 11.947L32.987 9.60929Z" fill="#CED6DC" />
        <path d="M22.5978 6.49311L21.5588 5.97363L21.0393 7.27233L22.338 7.79181L22.5978 6.49311Z" fill="#CED6DC" />
        <path d="M28.5717 64.6757L25.9743 63.6367L24.9353 66.2341L27.5327 67.2731L28.5717 64.6757Z" fill="#CED6DC" />
        <path d="M24.6754 63.1162L23.3767 62.5967L22.8572 63.8954L24.1559 64.4149L24.6754 63.1162Z" fill="#CED6DC" />
        <path d="M22.5973 69.6084L21.5583 69.3486L21.2986 70.3876L22.3375 70.6473L22.5973 69.6084Z" fill="#CED6DC" />
        <path d="M31.6885 63.8945L29.8703 63.375L29.3508 64.9334L31.169 65.4529L31.6885 63.8945Z" fill="#CED6DC" />
        <path d="M27.0131 61.0371L26.4936 60.7773L26.2339 61.2968L26.7534 61.5566L27.0131 61.0371Z" fill="#CED6DC" />
        <path d="M34.026 67.0107L33.5066 66.751L33.2468 67.2705L33.7663 67.5302L34.026 67.0107Z" fill="#CED6DC" />
        <path d="M27.0131 70.3896L26.4936 70.1299L26.2339 70.6494L26.7534 70.9091L27.0131 70.3896Z" fill="#CED6DC" />
        <path d="M22.5974 67.2724L22.3376 67.0127L22.0779 67.2724L22.3376 67.5322L22.5974 67.2724Z" fill="#CED6DC" />
        <path d="M32.987 59.7382L30.6493 58.959L29.8701 61.2967L32.2078 62.0759L32.987 59.7382Z" fill="#CED6DC" />
        <path d="M34.805 60.5176L33.7661 60.2578L33.5063 61.037L34.5453 61.2968L34.805 60.5176Z" fill="#CED6DC" />
        <path d="M34.805 57.6611L33.7661 57.4014L33.5063 58.4403L34.5453 58.7001L34.805 57.6611Z" fill="#CED6DC" />
        <path d="M34.805 58.7011L33.7661 58.4414L33.5063 59.4804L34.5453 59.7401L34.805 58.7011Z" fill="#CED6DC" />
        <path d="M31.4286 66.7529L30.3896 66.2334L29.8701 67.2724L30.9091 67.7918L31.4286 66.7529Z" fill="#CED6DC" />
        <path d="M35.8444 68.83L34.8054 68.5703L34.5457 69.3495L35.5846 69.6093L35.8444 68.83Z" fill="#CED6DC" />
        <path d="M30.3895 69.3505L29.0908 68.8311L28.5713 70.1298L29.87 70.6492L30.3895 69.3505Z" fill="#CED6DC" />
        <path d="M32.9872 68.3096L32.208 68.0498L31.9482 68.829L32.7275 69.0888L32.9872 68.3096Z" fill="#CED6DC" />
        <path d="M34.805 7.01264L33.5063 6.49316L32.9868 8.0516L34.5453 8.57109L34.805 7.01264Z" fill="#CED6DC" />
        <path d="M35.8444 11.9473H34.5457V12.9862H35.5846V11.9473H35.8444Z" fill="#CED6DC" />
        <path d="M35.3246 1.81641H34.2856V2.85536H35.3246V1.81641Z" fill="#CED6DC" />
        <path d="M36.8831 3.37598H35.0649V5.19416H36.8831V3.37598Z" fill="#CED6DC" />
        <path d="M35.3246 66.4922H34.2856V67.5312H35.3246V66.4922Z" fill="#CED6DC" />
        <path d="M35.8444 67.0127H34.5457V68.0516H35.5846V67.0127H35.8444Z" fill="#CED6DC" />
        <path d="M34.5453 67.5322H33.5063V68.8309H34.5453V67.5322Z" fill="#CED6DC" />
        <path d="M34.5453 64.6738H33.5063V65.7128H34.5453V64.6738Z" fill="#CED6DC" />
        <path d="M37.9223 62.0771L35.5846 61.2979L34.5457 63.6355L36.8833 64.4147L37.9223 62.0771Z" fill="#CED6DC" />
        <path d="M36.1037 62.0771L33.766 61.2979L32.9868 63.6355L35.3245 64.4147L36.1037 62.0771Z" fill="#CED6DC" />
        <path d="M34.5456 62.8564L34.2859 62.5967L34.0261 62.8564L34.2859 63.1162L34.5456 62.8564Z" fill="#CED6DC" />
        <path d="M27.7923 34.2842H25.9741V36.1024H27.7923V34.2842Z" fill="#CED6DC" />
        <path d="M28.5716 33.2461H26.7534V35.0643H28.5716V33.2461Z" fill="#CED6DC" />
        <path d="M29.6102 31.9473H27.792V33.7654H29.6102V31.9473Z" fill="#CED6DC" />
        <path d="M28.0517 40.2598H27.0127V41.2987H28.0517V40.2598Z" fill="#CED6DC" />
        <path d="M28.8309 37.6621H27.0127V39.4803H28.8309V37.6621Z" fill="#CED6DC" />
        <path d="M25.757 37.5157L25.3152 38.4561L26.2556 38.8978L26.6973 37.9575L25.757 37.5157Z" fill="#CED6DC" />
        <path d="M24.6631 31.0016L24.0005 32.4121L25.411 33.0748L26.0737 31.6642L24.6631 31.0016Z" fill="#CED6DC" />
        <path d="M22.201 36.7092L22.0906 36.9443L22.3257 37.0548L22.4361 36.8197L22.201 36.7092Z" fill="#CED6DC" />
        <path d="M26.7533 34.8037L25.9741 34.2842L25.4546 35.0634L26.2338 35.5829L26.7533 34.8037Z" fill="#CED6DC" />
        <path d="M24.1562 34.5439L23.8965 34.2842L23.6367 34.5439L23.8965 34.8037L24.1562 34.5439Z" fill="#CED6DC" />
        <path d="M26.2336 30.1299L25.9739 29.8701L25.7141 30.1299L25.9739 30.3896L26.2336 30.1299Z" fill="#CED6DC" />
        <path d="M26.7534 33.2451L26.4936 32.9854L26.2339 33.2451L26.4936 33.5048L26.7534 33.2451Z" fill="#CED6DC" />
        <path d="M27.7919 29.0898L27.2724 28.8301L27.0127 29.3496L27.5322 29.6093L27.7919 29.0898Z" fill="#CED6DC" />
      </svg>