<svg t="1780676414011" class="icon" viewBox="0 0 1024 1024" version="1.1" xmlns="http://www.w3.org/2000/svg" p-id="10666" width="200" height="200"><path d="M0.0256 702.72h1024v294.2208h-1024V702.72z" fill="#0096E6" p-id="10667"></path><path d="M902.9376 454.4c-34.7904-15.36-86.3744-55.296-162.7904-68.9664a298.9824 298.9824 0 0 0 49.5616-92.3648 173.5168 173.5168 0 0 0 7.3216-68.8384 325.12 325.12 0 0 0-1.2032-70.1952c-16.7424-60.0064-59.4688-76.5952-109.3632-76.5952s-92.5696 16.7424-109.3888 76.8a326.7072 326.7072 0 0 0-0.9984 70.016 174.08 174.08 0 0 0 7.3728 69.12 299.52 299.52 0 0 0 49.3824 92.4416c-75.8016 13.9264-127.0272 53.4528-161.5872 68.8896-71.5264 31.8976-71.8592 66.9696-71.8592 66.9696v59.1616h575.872v-59.52s-0.5376-35.0464-72.32-66.9184z" fill="#D0E8F9" p-id="10668"></path><path d="M425.3696 315.1104V215.8848A164.736 164.736 0 0 0 260.864 51.2h-6.0928a164.6848 164.6848 0 0 0-164.6848 164.736v99.1744H32.0512v340.6336h453.376V315.1104z m-115.2 278.144H207.2064l25.1136-110.08a51.4304 51.4304 0 1 1 52.2752 0z m33.0496-278.1952h-170.752V215.9104A82.3552 82.3552 0 0 1 254.7712 133.632h6.2464a82.3552 82.3552 0 0 1 82.1504 82.2272v99.2256z" fill="#0096E6" p-id="10669"></path><path d="M325.5808 910.5152v29.2864h-103.168v-173.9264h35.84v144.64z m177.8176-57.7536a93.3888 93.3888 0 0 1-6.4 35.0208 79.5136 79.5136 0 0 1-18.0736 27.4944 82.6624 82.6624 0 0 1-28.16 17.92 98.6112 98.6112 0 0 1-36.4032 6.4768H347.392v-173.8496h66.9696a98.6112 98.6112 0 0 1 36.4032 6.4768 82.2528 82.2528 0 0 1 28.16 17.92 80.4352 80.4352 0 0 1 18.0736 27.4944 92.6464 92.6464 0 0 1 6.4 35.0464z m-36.9152 0a78.336 78.336 0 0 0-3.6096-24.576 51.7376 51.7376 0 0 0-10.24-18.4576 44.9792 44.9792 0 0 0-16.3584-11.6224 55.808 55.808 0 0 0-21.888-4.1984h-30.72v117.5552h30.72a56.4736 56.4736 0 0 0 21.888-4.1728 44.1088 44.1088 0 0 0 16.3584-11.6224 52.4032 52.4032 0 0 0 10.24-18.5088 78.6944 78.6944 0 0 0 3.6096-24.3968z m209.92 87.04h-28.16a12.2624 12.2624 0 0 1-7.68-2.2272 13.3888 13.3888 0 0 1-4.1728-5.6832l-11.7504-33.28h-69.4016l-11.7504 33.28a13.6704 13.6704 0 0 1-4.1984 5.4528 11.52 11.52 0 0 1-7.5264 2.56h-28.16l68.0192-173.8496h36.7872z m-60.4672-65.9968l-18.7904-53.1968q-1.664-4.1984-3.5584-9.8304t-3.5072-12.2112q-1.664 6.7072-3.5584 12.544t-3.5072 9.8816l-18.7136 52.9408h51.6352z m135.1424-107.8528a100.9408 100.9408 0 0 1 30.72 4.1984 58.5984 58.5984 0 0 1 21.376 11.6736 46.08 46.08 0 0 1 12.544 17.792 61.184 61.184 0 0 1 4.1728 22.4 63.616 63.616 0 0 1-4.1728 23.4752 48.0256 48.0256 0 0 1-12.544 18.3296 59.0336 59.0336 0 0 1-21.4272 11.9296 97.28 97.28 0 0 1-30.3104 4.1728h-23.2704v59.8016h-35.84V765.952h58.7264z m0 86.5024a33.28 33.28 0 0 0 24.7296-8.1664 30.72 30.72 0 0 0 7.8592-22.2976 33.664 33.664 0 0 0-1.9712-11.8016 23.552 23.552 0 0 0-5.9904-9.1136 27.0848 27.0848 0 0 0-10.24-5.8112 46.08 46.08 0 0 0-14.4896-2.048h-22.8096v59.0592z" fill="#FFFFFF" p-id="10670"></path></svg>