<svg t="1780676461076" class="icon" viewBox="0 0 1105 1024" version="1.1" xmlns="http://www.w3.org/2000/svg" p-id="10959" width="200" height="200"><path d="M506.97557333 108.21085867l139.71729067-76.21290667v875.67018667l-139.71182933 74.36151466V108.21085867z" fill="#F38019" p-id="10960"></path><path d="M477.216768 311.43253333a772.59298133 772.59298133 0 0 0-82.19306667 17.72202667C92.11630933 410.681344 6.160384 609.92170667 38.354944 714.3424c32.12356267 104.42069333 171.769856 280.76714667 468.55509333 266.878976 0.147456-29.23997867 0.147456-61.587456 0-96.95505067-213.860352-28.13678933-322.85764267-94.748672-326.991872-199.901184-6.127616-157.59223467 143.11424-231.36392533 232.39611734-244.28544 17.94594133-2.65966933 40.173568-6.05661867 65.27931733-9.22965333l-0.294912-119.41205333h-0.07645867z m197.46542933 114.82999467c55.67829333 6.06208 110.477312 19.939328 156.84949334 47.40983467-11.370496 5.537792-36.552704 21.04797867-75.546624 46.37764266l309.85966933 70.81710934-17.645568-220.35387734-83.59662933 47.25691734c-123.84119467-61.65845333-218.87931733-97.10250667-285.11982934-106.33216l-4.800512 114.82453333z" fill="#ADAFB3" p-id="10961"></path></svg>