<svg t="1780676363610" class="icon" viewBox="0 0 1024 1024" version="1.1" xmlns="http://www.w3.org/2000/svg" p-id="10374" width="200" height="200"><path d="M512 78.994286a433.005714 433.005714 0 1 0 0 866.011428 433.005714 433.005714 0 0 0 433.005714-433.005714 433.005714 433.005714 0 0 0-433.005714-433.005714z m200.070095 374.979047a92.452571 92.452571 0 0 1-6.241524 16.091429h0.097524l-0.341333 0.585143c-18.18819 38.863238-65.633524 115.126857-65.633524 115.126857l-0.195048-0.487619-13.84838 24.137143h66.803809l-127.658667 169.593904 29.013334-115.370666h-52.614096l18.285715-76.312381a731.91619 731.91619 0 0 0-52.955429 15.11619s-27.940571 16.335238-80.603428-31.50019c0 0-35.498667-31.305143-14.872381-39.107048 8.777143-3.31581 42.422857-7.558095 68.998095-11.117714 35.937524-4.87619 57.977905-7.41181 57.977905-7.41181s-110.640762 1.609143-136.874667-2.438095c-26.233905-4.144762-59.489524-47.932952-66.608762-86.406095 0 0-10.971429-21.113905 23.600762-11.117714 34.523429 9.99619 177.493333 38.912 177.493333 38.912S350.061714 395.312762 337.627429 381.366857c-12.385524-13.848381-36.425143-75.922286-33.304381-114.005333 0 0 1.365333-9.508571 11.117714-6.924191 0 0 137.508571 62.756571 231.472762 97.182477 94.061714 34.377143 175.786667 51.882667 165.205333 96.402285z" fill="#3AA2EB" p-id="10375"></path></svg>