<svg t="1780833746639" class="icon" viewBox="0 0 1024 1024" version="1.1" xmlns="http://www.w3.org/2000/svg" p-id="6505" width="200" height="200"><path d="M512 1024C229.180952 1024 0 794.819048 0 512S229.180952 0 512 0 1024 229.180952 1024 512 794.819048 1024 512 1024z m259.169524-568.905143H480.402286a25.697524 25.697524 0 0 0-18.724572 8.289524 26.038857 26.038857 0 0 0-6.290285 13.312 25.453714 25.453714 0 0 0-0.292572 3.705905v63.195428c0 13.994667 11.312762 25.35619 25.258667 25.356191h177.005714c13.994667 0 25.35619 11.264 25.356191 25.209905v12.678095a72.850286 72.850286 0 0 1-3.31581 21.991619 74.752 74.752 0 0 1-13.945905 26.087619 78.896762 78.896762 0 0 1-16.481524 14.969905 72.655238 72.655238 0 0 1-16.579047 8.338285 74.752 74.752 0 0 1-25.551238 4.437334H366.592a35.108571 35.108571 0 0 1-4.924952-0.487619 20.72381 20.72381 0 0 1-4.729905-1.462858 24.185905 24.185905 0 0 1-9.898667-7.314285 24.868571 24.868571 0 0 1-5.705143-16.042667V417.206857A75.727238 75.727238 0 0 1 417.158095 341.333333h353.913905a25.84381 25.84381 0 0 0 16.091429-5.753904 24.380952 24.380952 0 0 0 6.777904-8.728381 24.527238 24.527238 0 0 0 2.438096-10.776381l0.048761-63.244191a26.331429 26.331429 0 0 0-2.925714-11.897905 28.867048 28.867048 0 0 0-3.608381-5.071238 25.35619 25.35619 0 0 0-18.724571-8.289523h-354.011429a189.781333 189.781333 0 0 0-171.446857 108.544 189.001143 189.001143 0 0 0-18.18819 81.091047v353.962667c0 13.945905 11.312762 25.258667 25.307428 25.258666h372.931048a171.154286 171.154286 0 0 0 108.251428-38.716952 165.059048 165.059048 0 0 0 23.649524-23.649524 172.422095 172.422095 0 0 0 31.402667-58.709333 176.274286 176.274286 0 0 0 6.534095-32.816762 170.861714 170.861714 0 0 0 0.828952-16.725333V480.402286a26.331429 26.331429 0 0 0-2.438095-10.825143 24.088381 24.088381 0 0 0-5.851428-7.899429 25.35619 25.35619 0 0 0-17.017905-6.582857z" fill="#C71D23" p-id="6506"></path></svg>