<svg t="1780218831736" class="icon" viewBox="0 0 5897 1024" version="1.1" xmlns="http://www.w3.org/2000/svg" p-id="9507" width="184" height="32" preserveAspectRatio="xMidYMid meet"><path d="M5564.17777758 49.77777781l12.58666687 0.42666657v-0.39111094H5731.55555508V992h-154.79111063V380.12444469l-296.08888875 481.95555562h-93.76000031l-296.08888875-481.95555562V992H4736.00000039V49.81333344h154.82666625v0.39111093l12.58666688-0.42666656 330.39999937 566.27555531L5564.17777758 49.77777781zM663.02222227 49.77777781c124.07111156 0 191.59111125 30.07999969 209.35111124 39.34222219l5.84888907 3.0222225-31.53777844 106.39999969-8.53333312-4.12444406c-46.80888844-22.57777781-107.62666687-35.05777781-171.27111094-35.05777782-203.52 0-329.92000031 133.44-329.92000032 348.21333282 0 212.44444406 121.42222219 339.28888875 324.78222282 339.28888874 65.72444438 0 134.31111094-13.40444438 178.95111093-35.05777781l8.85333282-4.28444437 27.23555625 104.16-5.83111125 2.91555562C830.36444414 934.82666656 748.01777789 956.44444437 638.61333351 956.44444437 373.7777782 956.44444437 202.66666664 781.76 202.66666664 511.44888875 202.66666664 235.30666625 387.66222258 49.77777781 663.02222227 49.77777781zM3402.66666633 49.77777781v885.88444407h-117.15555563V858.66666688C3217.54666664 923.53777812 3139.19999976 956.44444437 3052.44444445 956.44444437c-94.61333344 0-176.35555594-34.09777781-242.93333343-101.22666656-66.45333375-67.02222187-100.1777775-148.62222188-100.1777775-242.48888906 0-93.86666625 34.11555562-175.30666687 101.42222156-242.02666688 67.3422225-66.73777781 150.64888875-100.55111156 247.60888969-100.55111062 88.26666656 0 164.55111094 32.05333313 227.14666593 95.32444406V49.77777781H3402.66666633zM1109.3333332 67.55555563v888.88888875h-124.44444469V67.55555563h124.44444469z m1023.87555563 231.11111062v369.38666719c0 95.1822225 82.96888875 172.69333313 185.01333375 172.69333312 102.00888844 0 185.01333375-77.51111156 185.01333281-172.69333312V298.66666625H2620.44444445v637.33333406h-117.20888906v-40.40888906A309.7422225 309.7422225 0 0 1 2318.22222258 956.44444437c-166.64888906 0-302.22222188-129.36888844-302.22222281-288.39111093V298.66666625h117.20888906zM4268.53333289 32C4448.17777758 32 4593.77777789 173.88444406 4593.77777789 348.9422225V639.46666625C4593.77777789 814.57777813 4448.17777758 956.44444437 4268.53333289 956.44444437H3793.7777782V32zM1564.00000008 280.88888844c96 0 178.7022225 33.49333312 245.83111125 99.62666719 58.64888906 57.7422225 91.99999969 126.47111156 99.43111125 204.67555593H1763.3777782c-7.11111094-39.28888875-26.22222187-74.5422225-57.38666719-104.99555625-40.14222188-39.25333312-88.30222219-59.12888906-143.11111125-59.12888906-54.77333344 0-102.77333344 19.87555594-142.57777781 59.09333344-39.91111125 39.41333344-60.16000031 86.88-60.15999937 140.97777844 0 54.18666656 19.51999969 100.8 58.02666656 138.48888843 38.34666656 37.61777813 87.23555531 56.67555563 145.24444406 56.67555563 55.96444406 0 104.32000031-19.25333344 143.69777813-57.20888906 31.59111094-30.40000031 50.52444469-66.31111125 56.88888843-106.98666657h54.11555532v53.51111157h62.15111156v-53.51111157H1909.33333289c-7.12888875 78.66666656-40.03555594 147.55555594-98.29333313 205.26222188C1744.72888851 923.11111156 1661.63555508 956.44444437 1564.01777789 956.44444437c-97.63555594 0-180.92444438-33.33333375-247.62666656-99.07555593C1249.76000039 791.82222219 1216.00000008 711.68 1216.00000008 619.25333375c0-92.39111156 33.95555531-172.74666656 101.01333281-238.75555594C1384.10666695 314.40000031 1467.20000039 280.88888844 1564.01777789 280.88888844z m1496.76444468 102.13333406c-65.81333344 0-121.42222219 23.14666688-165.38666718 68.85333281-44.14222219 45.90222188-66.52444406 100.55111156-66.52444407 162.57777844 0 61.95555563 22.96888875 116.81777813 68.23111125 163.03999969 45.15555562 46.16888906 100.00000031 69.52888875 163.07555532 69.52888875 59.34222187 0 113.10222187-21.95555531 159.87555562-65.24444438 46.57777781-43.16444438 70.2222225-98.70222188 70.2222225-165.03111093 0-66.55999969-21.97333312-122.79111094-65.26222312-167.12888907-43.2-44.17777781-98.48888906-66.59555531-164.23111032-66.59555531z m1207.76888813-205.76000062h-325.65333281v633.884445h325.65333281c97.13777812 0 176.17777781-77.01333375 176.17777781-171.68000063V348.9422225c0-94.66666688-79.03999969-171.67999969-176.17777781-171.68000063zM1473.6533332 583.11111125c11.96444437 0 22.52444438 4.48000031 31.28888906 13.2977775 8.80000031 8.87111156 13.27999969 19.48444406 13.27999969 31.60888875 0 12.10666688-4.39111125 22.56-13.03111125 31.12888875A43.2 43.2 0 0 1 1473.77777789 672.00000031c-12.69333375 0-23.3777775-4.28444437-31.78666687-12.74666718A42.75555562 42.75555562 0 0 1 1429.33333289 628.08888875c0-12.1422225 4.40888906-22.82666625 13.15555594-31.69777781 8.71111125-8.81777813 19.16444438-13.2977775 31.16444437-13.2977775zM4175.99999977 369.7777775c44.19555562 0 79.99999969 35.3777775 80.00000062 79.04000063 0 31.16444438-18.45333375 57.86666625-44.99555625 70.71999937V636.44444469h-70.00888875v-116.90666719C4114.45333289 506.66666656 4096.00000008 479.9822225 4096.00000008 448.81777813c0-43.64444437 35.80444406-79.03999969 79.99999968-79.04000063z" fill="#222222" p-id="9508"></path></svg>